<svg id="Capa_1" data-name="Capa 1" xmlns="http://www.w3.org/2000/svg" viewBox="0 0 32.84 26.45"><defs><style>.cls-1{fill:#3c3c3b;}</style></defs><title>8</title><path class="cls-1" d="M31.73,26.45H1.11A1.11,1.11,0,0,1,0,25.34V5A1.11,1.11,0,0,1,1.11,3.91H31.73A1.11,1.11,0,0,1,32.84,5V25.34A1.11,1.11,0,0,1,31.73,26.45ZM2.21,24.24H30.63V6.12H2.21V24.24Z"/><polygon class="cls-1" points="10.5 0.74 3.33 0.74 0.76 5.02 10.5 5.02 10.5 0.74"/><path class="cls-1" d="M10.5,5.75H0.76A0.74,0.74,0,0,1,.13,4.64L2.7,0.36A0.74,0.74,0,0,1,3.33,0H10.5a0.74,0.74,0,0,1,.74.74V5A0.74,0.74,0,0,1,10.5,5.75ZM2.06,4.28h7.7V1.47h-6Z"/><polygon class="cls-1" points="6.34 0.74 13.51 0.74 16.09 5.02 6.34 5.02 6.34 0.74"/><path class="cls-1" d="M16.09,5.75H6.34A0.74,0.74,0,0,1,5.61,5V0.74A0.74,0.74,0,0,1,6.34,0h7.17a0.74,0.74,0,0,1,.63.36l2.58,4.28A0.74,0.74,0,0,1,16.09,5.75Zm-9-1.47h7.7L13.1,1.47h-6V4.28Z"/><rect class="cls-1" x="22.94" y="9.61" width="3.69" height="3.69"/><rect class="cls-1" x="19.25" y="5.93" width="3.69" height="3.69"/><rect class="cls-1" x="19.37" y="13.36" width="3.57" height="3.57"/><rect class="cls-1" x="22.94" y="16.99" width="3.69" height="3.69"/><rect class="cls-1" x="19.25" y="20.68" width="3.69" height="3.69"/></svg>