<svg id="Capa_1" data-name="Capa 1" xmlns="http://www.w3.org/2000/svg" viewBox="0 0 34.16 37.36"><defs><style>.cls-1{fill:#3c3c3b;}</style></defs><title>2</title><path class="cls-1" d="M14.44,36.38H5.59A3.43,3.43,0,0,1,2.17,33V3.42A3.43,3.43,0,0,1,5.59,0h21A3.43,3.43,0,0,1,30,3.42V16.86a3.44,3.44,0,0,1-1,2.42L15.89,32.36a1.22,1.22,0,0,0-.35.86v2.06A1.11,1.11,0,0,1,14.44,36.38ZM5.59,2.21A1.21,1.21,0,0,0,4.38,3.42V33a1.21,1.21,0,0,0,1.21,1.21h7.74v-1a3.44,3.44,0,0,1,1-2.42L27.41,17.72a1.22,1.22,0,0,0,.35-0.86V3.42a1.21,1.21,0,0,0-1.21-1.21h-21Z"/><rect class="cls-1" x="28.77" y="22.02" width="4.23" height="3.03" transform="translate(25.69 -14.95) rotate(45)"/><polygon class="cls-1" points="30.67 26.74 27.68 23.75 17.58 33.85 17.04 37.36 20.57 36.84 30.67 26.74"/><polygon class="cls-1" points="24.16 14.41 20.6 11.37 17.04 14.41 17.04 1.11 24.16 1.11 24.16 14.41"/><path class="cls-1" d="M24.16,14.78a0.37,0.37,0,0,1-.24-0.09L20.6,11.85l-3.32,2.84a0.36,0.36,0,0,1-.39.05,0.37,0.37,0,0,1-.21-0.33V1.11A0.37,0.37,0,0,1,17,.74h7.12a0.37,0.37,0,0,1,.37.37v13.3a0.37,0.37,0,0,1-.21.33A0.36,0.36,0,0,1,24.16,14.78ZM20.6,11a0.37,0.37,0,0,1,.24.09l3,2.52V1.47H17.4V13.61l3-2.52A0.37,0.37,0,0,1,20.6,11Z"/><rect class="cls-1" x="0.37" y="5.76" width="5.81" height="2.35"/><path class="cls-1" d="M6.18,8.48H0.37A0.37,0.37,0,0,1,0,8.11V5.76A0.37,0.37,0,0,1,.37,5.39H6.18a0.37,0.37,0,0,1,.37.37V8.11A0.37,0.37,0,0,1,6.18,8.48ZM0.74,7.75H5.81V6.13H0.74V7.75Z"/><rect class="cls-1" x="0.37" y="16.32" width="5.81" height="2.35"/><path class="cls-1" d="M6.18,19H0.37A0.37,0.37,0,0,1,0,18.67V16.32A0.37,0.37,0,0,1,.37,16H6.18a0.37,0.37,0,0,1,.37.37v2.35A0.37,0.37,0,0,1,6.18,19Zm-5.44-.74H5.81V16.69H0.74v1.61Z"/><rect class="cls-1" x="0.37" y="27.46" width="5.81" height="2.35"/><path class="cls-1" d="M6.18,30.18H0.37A0.37,0.37,0,0,1,0,29.81V27.46a0.37,0.37,0,0,1,.37-0.37H6.18a0.37,0.37,0,0,1,.37.37v2.35A0.37,0.37,0,0,1,6.18,30.18Zm-5.44-.74H5.81V27.83H0.74v1.61Z"/></svg>