<svg id="Capa_1" data-name="Capa 1" xmlns="http://www.w3.org/2000/svg" viewBox="0 0 25.8 34.74"><defs><style>.cls-1{fill:#3c3c3b;}</style></defs><title>10</title><circle class="cls-1" cx="8.17" cy="26.57" r="7.48"/><path class="cls-1" d="M8.17,34.74a8.17,8.17,0,1,1,8.17-8.17A8.18,8.18,0,0,1,8.17,34.74Zm0-15A6.79,6.79,0,1,0,15,26.57,6.8,6.8,0,0,0,8.17,19.78Z"/><path class="cls-1" d="M15.23,28.58a1,1,0,0,1-1-1v-25a1,1,0,0,1,2.07,0v25A1,1,0,0,1,15.23,28.58Z"/><rect class="cls-1" x="14.22" width="11.59" height="6.21"/></svg>