<svg id="Capa_1" data-name="Capa 1" xmlns="http://www.w3.org/2000/svg" viewBox="0 0 30.43 30.43"><defs><style>.cls-1{fill:#3c3c3b;}</style></defs><title>9</title><path class="cls-1" d="M29.27,30.43H1.16A1.16,1.16,0,0,1,0,29.27V1.16A1.16,1.16,0,0,1,1.16,0h13.5a1.16,1.16,0,0,1,0,2.31H2.31v25.8h25.8V17.73a1.16,1.16,0,1,1,2.31,0V29.27A1.16,1.16,0,0,1,29.27,30.43Z"/><path class="cls-1" d="M10.39,21.77a1.16,1.16,0,0,1-.82-2L26.71,2.66a1.16,1.16,0,0,1,1.64,1.64L11.21,21.43A1.15,1.15,0,0,1,10.39,21.77Z"/><polygon class="cls-1" points="28.83 2.21 20.95 4.33 26.72 10.1 28.83 2.21 20.95 4.33 26.72 10.1 28.83 2.21"/><path class="cls-1" d="M26.72,11.26a1.16,1.16,0,0,1-.82-0.34L20.13,5.14a1.16,1.16,0,0,1-.34-0.82,1.15,1.15,0,0,1,0-.3,1.16,1.16,0,0,1,.82-0.82l7.89-2.11a1.16,1.16,0,0,1,1.42,1.42L27.84,10.4A1.16,1.16,0,0,1,26.72,11.26ZM23.18,4.93l2.94,2.94,1.08-4Z"/></svg>