<svg id="Capa_1" data-name="Capa 1" xmlns="http://www.w3.org/2000/svg" viewBox="0 0 43.59 31.65"><defs><style>.cls-1{fill:#3c3c3b;}</style></defs><title>13</title><path class="cls-1" d="M17.11,17.57l-0.17,0a1.09,1.09,0,0,0-.38.18L10.4,21.5V18.71a1.12,1.12,0,0,0-.84-1.09c-4.37-1.13-7.31-4.13-7.31-7.45,0-4.37,4.93-7.92,11-7.92,5.19,0,9.54,2.61,10.69,6.1a15.47,15.47,0,0,1,2.12-.72C24.59,3.25,19.41,0,13.25,0,5.94,0,0,4.56,0,10.17,0,14.31,3.24,18,8.15,19.56v3.93a1.12,1.12,0,0,0,1.7,1l7.69-4.61A8,8,0,0,1,17.11,17.57Z"/><circle class="cls-1" cx="7.19" cy="7.73" r="1.89"/><circle class="cls-1" cx="13.25" cy="7.73" r="1.89"/><circle class="cls-1" cx="19.31" cy="7.73" r="1.89"/><path class="cls-1" d="M33.74,31.49l-7.83-4.7c-5.28-1.43-8.82-5.26-8.82-9.59C17.09,11.6,23,7,30.34,7S43.59,11.6,43.59,17.21c0,4.14-3.24,7.83-8.15,9.39v3.93A1.12,1.12,0,0,1,33.74,31.49ZM19.34,17.21c0,3.33,2.94,6.32,7.31,7.45a1.1,1.1,0,0,1,.38.18l6.16,3.7V25.75A1.13,1.13,0,0,1,34,24.66c4.37-1.13,7.31-4.13,7.31-7.45,0-4.37-4.93-7.92-11-7.92S19.34,12.84,19.34,17.21Z"/><circle class="cls-1" cx="36.4" cy="14.78" r="1.89"/><circle class="cls-1" cx="30.34" cy="14.78" r="1.89"/><circle class="cls-1" cx="24.28" cy="14.78" r="1.89"/></svg>