<svg id="Capa_1" data-name="Capa 1" xmlns="http://www.w3.org/2000/svg" viewBox="0 0 20.46 38.82"><defs><style>.cls-1{fill:#3c3c3b;}</style></defs><title>3</title><path class="cls-1" d="M10.23,38.82c-3.45,0-6.12-.92-7.93-2.74A8,8,0,0,1,0,30.77V5.71a1.08,1.08,0,0,1,0-.15C0.29,3.64,2.28,0,7.79,0s7.36,3.67,7.53,5.62c0,0,0,.06,0,0.1V28.16a4.32,4.32,0,0,1-1,3.07,4.41,4.41,0,0,1-3.42,1.31,4.6,4.6,0,0,1-3.46-1.3,4.49,4.49,0,0,1-1.18-3.09V10.61a1,1,0,1,1,2.1,0V28.2a2.45,2.45,0,0,0,.61,1.61,2.62,2.62,0,0,0,1.94.64,2.44,2.44,0,0,0,1.86-.62,2.28,2.28,0,0,0,.5-1.54s0-.06,0-0.09V5.77C13.16,5.26,12.56,2.1,7.79,2.1S2.2,5.29,2.1,5.8v25c0,0.24.13,5.94,8.13,5.94,2.87,0,5-.72,6.44-2.12a6,6,0,0,0,1.69-3.81V13.05a1,1,0,0,1,2.1,0V30.77a8,8,0,0,1-2.3,5.3C16.35,37.89,13.68,38.82,10.23,38.82Z"/></svg>