<svg xmlns="http://www.w3.org/2000/svg" xmlns:xlink="http://www.w3.org/1999/xlink" viewBox="0 0 15.68 15.68"><defs><style>.cls-1{fill:none;}.cls-2{isolation:isolate;}.cls-3{clip-path:url(#clip-path);}.cls-4{opacity:0.95;mix-blend-mode:multiply;}.cls-5{clip-path:url(#clip-path-2);}.cls-6{clip-path:url(#clip-path-3);}.cls-7{fill:#e6e6e6;opacity:0.43;}.cls-8,.cls-9{fill:#db4056;}.cls-9{font-size:12.12px;font-family:Lato;font-weight:700;}</style><clipPath id="clip-path"><rect class="cls-1" x="443.91" y="-1021.69" width="1366" height="768"/></clipPath><clipPath id="clip-path-2"><rect class="cls-1" x="-1575.86" y="-1021.69" width="1366" height="768"/></clipPath><clipPath id="clip-path-3"><rect class="cls-1" x="-1575.86" y="-53.69" width="1366" height="768"/></clipPath></defs><title>Error Icon</title><g class="cls-2"><g id="Capa_1" data-name="Capa 1"><g class="cls-6"><g class="cls-4"><path class="cls-7" d="M-21.89-100.12A54.81,54.81,0,0,1,47.21-65,54.81,54.81,0,0,1,12.07,4.12"/><rect class="cls-7" x="-12.47" y="27.39" width="127.56" height="281.34" transform="translate(-49.53 24.16) rotate(-18.04)"/></g></g><path class="cls-8" d="M7.84,15.68a7.84,7.84,0,1,1,7.84-7.84A7.85,7.85,0,0,1,7.84,15.68Zm0-14.18a6.34,6.34,0,1,0,6.34,6.34A6.35,6.35,0,0,0,7.84,1.5Z"/><text class="cls-9" transform="translate(5.48 11.68)">!</text></g></g></svg>