<svg id="Capa_1" data-name="Capa 1" xmlns="http://www.w3.org/2000/svg" viewBox="0 0 34.36 34.35"><defs><style>.cls-1{fill:#3c3c3b;}</style></defs><title>6</title><path class="cls-1" d="M18.69,24.93a9.23,9.23,0,0,1-8.92-6.77,1.09,1.09,0,1,1,2.09-.58A7.1,7.1,0,0,0,23.7,20.69l6.41-6.41a7.1,7.1,0,0,0-10-10L16.66,7.66a1.09,1.09,0,0,1-1.54-1.54l3.42-3.42A9.27,9.27,0,0,1,31.65,15.82l-6.41,6.41A9.2,9.2,0,0,1,18.69,24.93Z"/><path class="cls-1" d="M9.26,34.35A9.27,9.27,0,0,1,2.71,18.54l6.41-6.41A9.26,9.26,0,0,1,24.59,16.2a1.09,1.09,0,1,1-2.09.58,7.1,7.1,0,0,0-11.85-3.11L4.24,20.07a7.1,7.1,0,0,0,10,10l3.42-3.42a1.09,1.09,0,0,1,1.54,1.54l-3.42,3.42A9.2,9.2,0,0,1,9.26,34.35Z"/></svg>