<svg id="Capa_1" data-name="Capa 1" xmlns="http://www.w3.org/2000/svg" viewBox="0 0 27.54 34.75"><defs><style>.cls-1{fill:#3c3c3b;}</style></defs><title>7</title><path class="cls-1" d="M26.32,34.75H1.23A1.23,1.23,0,0,1,0,33.52V1.23A1.23,1.23,0,0,1,1.23,0H17.5a1.23,1.23,0,0,1,.87.36l8.82,8.82a1.23,1.23,0,0,1,.36.87V33.52A1.23,1.23,0,0,1,26.32,34.75ZM2.46,32.3H25.09V10.55L17,2.46H2.46V32.3Z"/><path class="cls-1" d="M25.66,10.82H17.38a0.65,0.65,0,0,1-.65-0.65V1.88a0.65,0.65,0,0,1,1.11-.46L26.12,9.7A0.65,0.65,0,0,1,25.66,10.82Z"/><polygon class="cls-1" points="4.86 29.25 13.24 20.87 16.6 24.23 21.52 19.31 21.52 29.25 4.86 29.25"/><path class="cls-1" d="M21.52,30.07H4.86a0.82,0.82,0,0,1-.58-1.4l8.38-8.38a0.84,0.84,0,0,1,1.16,0l2.78,2.78,4.34-4.34a0.82,0.82,0,0,1,1.4.58v9.95A0.82,0.82,0,0,1,21.52,30.07ZM6.84,28.44H20.7V21.28l-3.53,3.53a0.82,0.82,0,0,1-1.16,0L13.24,22Z"/><circle class="cls-1" cx="7.23" cy="14.76" r="1.69"/><path class="cls-1" d="M7.23,17.27a2.51,2.51,0,1,1,2.51-2.51A2.51,2.51,0,0,1,7.23,17.27Zm0-3.38a0.87,0.87,0,1,0,.87.87A0.87,0.87,0,0,0,7.23,13.89Z"/></svg>