<svg id="Capa_1" data-name="Capa 1" xmlns="http://www.w3.org/2000/svg" viewBox="0 0 887.8125 213.83333"><defs><style>.cls-1{fill:#f2ab27;}.cls-2{fill:#154659;}</style></defs><title>Logo Azul</title><path class="cls-1" d="M812.8396,1.21673L762.74893,51.30739a26.34243,26.34243,0,0,0,37.25382,37.25382L887.34724,1.21673H812.8396Z"/><path class="cls-1" d="M874.51086,125.8154a26.37253,26.37253,0,0,0-37.25382,0l-87.34595,87.34595h74.50765l50.09213-50.09213A26.37253,26.37253,0,0,0,874.51086,125.8154Z"/><path class="cls-2" d="M762.74894,51.30737a26.37251,26.37251,0,0,1,37.25384,0l74.50807,74.50807A26.34244,26.34244,0,1,1,837.257,163.06928L762.74894,88.56121A26.37251,26.37251,0,0,1,762.74894,51.30737ZM869.0911,157.64953a19.9643,19.9643,0,0,0,0-28.20229L796.371,56.72712a19.942,19.942,0,0,0-28.20229,28.20229l72.72012,72.72012A19.9643,19.9643,0,0,0,869.0911,157.64953Z"/><polygon class="cls-1" points="697.013 64.8 697.013 99.089 660.843 99.089 660.843 64.8 641.855 64.8 641.855 149.577 660.843 149.577 660.843 115.288 697.013 115.288 697.013 149.577 716 149.577 716 64.8 697.013 64.8"/><path class="cls-2" d="M260.93284,64.8V80.9993H214.27042V99.08872h33.40343v16.19934H214.27042v18.08942h46.66243v16.19934h-65.65V64.8h65.65Z"/><path class="cls-2" d="M147.44063,66.75065a58.70434,58.70434,0,0,0-16.57492-1.95073H99.62206V80.99926h31.24365c6.66823,0,10.47859.88587,13.90763,2.30568,9.84344,4.07824,15.09113,13.30132,15.09113,23.88341s-5.24768,19.80517-15.09113,23.88341c-3.429,1.41981-7.2394,2.30568-13.90763,2.30568H118.60962V99.98683L99.62206,80.99926v68.57752h31.24365a58.70434,58.70434,0,0,0,16.57492-1.95073c18.60633-5.3794,31.73451-20.98785,31.73451-40.43771S166.047,72.13,147.44063,66.75065Z"/><path class="cls-1" d="M417.10139,66.75065a58.70434,58.70434,0,0,0-16.57492-1.95073H369.28281V80.99926h31.24365c6.66823,0,10.47859.88587,13.90763,2.30568,9.84344,4.07824,15.09113,13.30132,15.09113,23.88341s-5.24768,19.80517-15.09113,23.88341c-3.429,1.41981-7.2394,2.30568-13.90763,2.30568H388.27038V99.98683L369.28281,80.99926v68.57752h31.24365a58.70434,58.70434,0,0,0,16.57492-1.95073c18.60633-5.3794,31.73451-20.98785,31.73451-40.43771S435.70772,72.13,417.10139,66.75065Z"/><path class="cls-2" d="M318.79946,134.36809c-15.93977,0-27.5349-11.68765-27.5349-27.17983s11.59513-27.17983,27.5349-27.17983c9.69768,0,17.43,3.84578,22.275,11.06017L353.599,77.15495c-8.57953-9.32731-21.14265-14.28421-34.79956-14.28421-26.291,0-46.84557,19.50471-46.84557,44.31753s20.55453,44.31753,46.84557,44.31753c13.65691,0,26.22-4.95691,34.79956-14.28421l-12.52461-13.91365C336.22949,130.52232,328.49714,134.36809,318.79946,134.36809Z"/><path class="cls-2" d="M61.98348,64.79992v47.31029a28.46762,28.46762,0,0,1-1.15466,8.0968c-2.37422,8.09607-8.85653,14.16109-19.63431,14.16109s-17.26009-6.065-19.63431-14.16109a28.46762,28.46762,0,0,1-1.15466-8.0968V64.79992H1.418v47.00855A47.98187,47.98187,0,0,0,2.7653,122.86526c4.29848,16.79716,18.41265,28.64053,38.42921,28.64053s34.13073-11.84336,38.42921-28.64053a47.98187,47.98187,0,0,0,1.34734-11.05679V64.79992H61.98348Z"/><path class="cls-1" d="M508.06785,64.79992H489.08047l-36.42956,84.77686h19.94846l5.65576-13.963h40.638l5.65576,13.963h19.94846Zm-23.25109,54.61449,13.7574-33.9647,13.7574,33.9647h-27.5148Z"/><path class="cls-1" d="M592.32438,96.84247c-12.89115-2.09959-20.38528-3.76765-20.38528-9.57328,0-5.31259,7.04874-7.65915,13.71788-7.65915,8.191,0,17.01795,2.96438,23.051,7.90613l10.79576-13.15638a55.58817,55.58817,0,0,0-33.59369-11.489c-20.76506,0-32.38591,11.55066-32.38591,26.06569,0,14.20645,12.19275,20.383,27.43256,23.47133,13.39907,2.7174,26.545,3.76756,26.545,12.04452,0,6.79436-8.6363,9.8826-16.38353,9.8826-9.77773,0-19.12228-4.52-26.60674-11.04347l-11.105,13.53324c12.43562,10.50935,26.1451,14.68115,38.02889,14.68115,19.55874,0,34.73594-11.48832,34.73594-27.115C626.17126,104.31616,607.62827,99.313,592.32438,96.84247Z"/></svg>