<svg xmlns="http://www.w3.org/2000/svg" viewBox="0 0 808.92 97.59"><defs><style>.cls-1{fill:#fff;}</style></defs><g id="Capa_2" data-name="Capa 2"><g id="LOGOS"><path class="cls-1" d="M708,65.38q-2.57-2.55-2.56-8.19V16.53h12.1V56a3.2,3.2,0,0,0,.68,2.36,3.07,3.07,0,0,0,2.18.64,11.37,11.37,0,0,0,3.6-.52v8.19a19.72,19.72,0,0,1-3.49,1,23.9,23.9,0,0,1-4.1.3C712.49,67.93,709.68,67.08,708,65.38Z"/><path class="cls-1" d="M731.6,65q-3.57-2.9-3.57-8.3a10.5,10.5,0,0,1,3.8-8.64Q735.63,45,742.91,45h9.92v-.82A4.21,4.21,0,0,0,751,40.28q-1.85-1.12-6.73-1.13a39.05,39.05,0,0,0-12,1.88V33.22a35.3,35.3,0,0,1,6.54-1.73,45.49,45.49,0,0,1,7.89-.68q8.49,0,13.08,3.46t4.58,10.67v23H753.81l-.6-3.75q-4.14,3.75-12.55,3.75A13.92,13.92,0,0,1,731.6,65Zm21.23-8V52h-8.57a6.33,6.33,0,0,0-4,1.06,3.89,3.89,0,0,0-1.31,3.23c0,2.8,1.85,4.21,5.56,4.21S750.88,59.34,752.83,57Z"/><path class="cls-1" d="M786.22,67a16,16,0,0,1-5-2.82l-.6,3.75H770.14V16.53h12.1V33.22a19.19,19.19,0,0,1,9.84-2.41c5.42,0,9.57,1.48,12.48,4.44s4.36,7.56,4.36,13.82-1.46,11-4.36,14.13-6.94,4.73-12.1,4.73A19.23,19.23,0,0,1,786.22,67Zm8.57-10.26c1.2-1.6,1.8-4.14,1.8-7.59s-.6-5.84-1.8-7.29-3.13-2.18-5.79-2.18a9.68,9.68,0,0,0-6.76,2.25V56.44a9.18,9.18,0,0,0,6.76,2.7Q793,59.14,794.79,56.74Z"/><path class="cls-1" d="M531.48,18a1.82,1.82,0,0,1,3.63,0V66.3a1.82,1.82,0,0,1-3.63,0Z"/><path class="cls-1" d="M557.25,68.08H557a1.79,1.79,0,0,1-1.63-1.78V18a1.81,1.81,0,0,1,1.78-1.78h9.71a25.94,25.94,0,1,1,0,51.88Zm9.56-3.63a22.31,22.31,0,1,0,0-44.62H559V64.45Z"/><path class="cls-1" d="M608.37,18a1.8,1.8,0,0,1,1.78-1.78h26.68a1.82,1.82,0,0,1,0,3.63H612V40.36h21.71a1.82,1.82,0,0,1,1.78,1.85A1.8,1.8,0,0,1,633.71,44H612V64.45h24.83a1.82,1.82,0,0,1,0,3.63H610a1.79,1.79,0,0,1-1.63-1.78Z"/><path class="cls-1" d="M674.58,16.16a27.74,27.74,0,0,1,16.75,5.63,1.78,1.78,0,0,1,.29,2.56,1.75,1.75,0,0,1-2.52.36,23.83,23.83,0,0,0-14.52-5c-13,0-23.34,10-23.34,22.52,0,12.22,10.37,22.24,23.34,22.24a22.26,22.26,0,0,0,14.38-5,1.81,1.81,0,0,1,2.59.44,1.71,1.71,0,0,1-.22,2.56,27.68,27.68,0,0,1-16.75,5.56c-14.9,0-27-11.56-27-25.82C647.6,27.71,659.68,16.23,674.58,16.16Z"/><path class="cls-1" d="M802.48,76.77A4.24,4.24,0,1,1,798.24,81a4.24,4.24,0,0,1,4.24-4.23m0-2.21A6.44,6.44,0,1,0,808.92,81a6.44,6.44,0,0,0-6.44-6.44Z"/><path class="cls-1" d="M783.09,76.77A4.24,4.24,0,1,1,778.85,81a4.24,4.24,0,0,1,4.24-4.23m0-2.21A6.44,6.44,0,1,0,789.53,81a6.44,6.44,0,0,0-6.44-6.44Z"/><path class="cls-1" d="M763.7,76.77A4.24,4.24,0,1,1,759.47,81a4.24,4.24,0,0,1,4.23-4.23m0-2.21A6.44,6.44,0,1,0,770.14,81a6.44,6.44,0,0,0-6.44-6.44Z"/><path class="cls-1" d="M744.32,76.77A4.24,4.24,0,1,1,740.08,81a4.24,4.24,0,0,1,4.24-4.23m0-2.21A6.44,6.44,0,1,0,750.76,81a6.44,6.44,0,0,0-6.44-6.44Z"/><path class="cls-1" d="M739.47,85.24h-27.6a4.24,4.24,0,1,1,0-8.47h27.6a6.42,6.42,0,0,1,4.85-2.21H711.87a6.44,6.44,0,1,0,0,12.88h32.45A6.41,6.41,0,0,1,739.47,85.24Z"/><path class="cls-1" d="M44.69,48.84a.73.73,0,1,1,0,1H34.75a.73.73,0,1,1,0-1Zm-7.46-2.19-1-4.12h6.94l-1,4.12Zm-2.23-6,.45-.93H44l.45.93Zm.83-3.09.46-.93h6.86l.46.93Zm8-15.74q2.46,2.55,0,5.16A9.15,9.15,0,0,0,43.86,21.84Zm-8.7,12.27c-2.81-2.87-.3-5.65-.93-7.57.82,0,1.21,1.66,2.08,2.42-.31-3.35,1.88-4.75,2.17-6.71,1.54,2.12-.08,4.08.66,6.21.68-3.42,3-4.42,2.88-6.83,2.09,2.5-1,6.65.71,9.16.7-.76.79-2.33,2-2.72-.33,1.76,1.66,2.93-.38,6Zm4.94,39a.87.87,0,0,1,.49.77.88.88,0,1,1-1.25-.79L37.27,54.64a2.46,2.46,0,1,1,4.91,0Zm31.84-8.5C73.62,62.75,74.32,60.23,74,57a2.73,2.73,0,0,1-1.65,1Q72.91,62.86,71.94,64.6Zm-3.62,9.08c3.13-2.3,4.48-5.19,4-8.65a18.5,18.5,0,0,1-3.86,4A9.81,9.81,0,0,1,68.32,73.68Zm-10,5.7a19.18,19.18,0,0,0,9.66-4.66q-6.47-1.45-9.68-.68A8.6,8.6,0,0,1,58.27,79.38Zm2.64,5a8.14,8.14,0,0,0,4.62-5.53,11.87,11.87,0,0,0-8.67,2.65A9.64,9.64,0,0,1,60.91,84.39ZM51.17,85.6c4,.26,6.77-.09,8.26-1a13.87,13.87,0,0,0-8-2.39Zm-5.62,1.7a10,10,0,0,0,10.36,1.48q-1.5-2.55-6.93-2.91c2-3.06,2.67-5.61,1.88-7.67Q46.77,79.64,45,85.73a21.05,21.05,0,0,0-5.33,1.41A8.13,8.13,0,0,0,36,86.4c-1-4.23-3.33-6.74-7-8a10.29,10.29,0,0,0,3.4,7.29q-5.82-.84-9,.67,5.28,4.47,12.12,1.2a5.92,5.92,0,0,1,2.1.28c-2.47,1.54-3.92,2.68-4.34,3.44a8.11,8.11,0,0,1,2.44.64,14.19,14.19,0,0,1,4.09-3.06,9.76,9.76,0,0,1,4.23,2.37A5.5,5.5,0,0,1,45.6,89.9,7.44,7.44,0,0,0,42.44,88,8.12,8.12,0,0,1,45.55,87.3ZM29.4,82.69q-6.27-2.52-10.82.86a10.79,10.79,0,0,0,9.05.66A5.36,5.36,0,0,1,29.4,82.69ZM13.85,79.16q.64,1.83,4.11,4a3.67,3.67,0,0,1,2.3-2.28A11.59,11.59,0,0,0,13.85,79.16Zm-3.08-5.48a17.46,17.46,0,0,0,10,5.58,8.81,8.81,0,0,1-1.06-5Q13.41,73.16,10.77,73.68Zm-5-8.51c.72,2.55,2.58,5,5.58,7.47a10.53,10.53,0,0,1,.15-5.41A14.23,14.23,0,0,0,5.79,65.17ZM5.38,53.8Q3.43,59,6.66,62.36a7.17,7.17,0,0,1,1.43-4.67,12.9,12.9,0,0,1,4.25,1.24c.2-3.61-.6-6.35-2.42-8.24q-1,1.17-1.11,5.66A7,7,0,0,0,5.38,53.8ZM9.44,27.27H5.36l3.3,2.4L7.4,33.55l3.3-2.4,3.3,2.4-1.26-3.88,3.3-2.4H12L10.7,23.39Zm0-16.79H5.36l3.3,2.4L7.4,16.76l3.3-2.4,3.3,2.4-1.26-3.88,3.3-2.4H12L10.7,6.6Zm1.92,55.38q1-3.47,1.89-3.87a6.47,6.47,0,0,1,2.37.5Q16.25,57,15.11,55a9.08,9.08,0,0,0-2,6.22,10.85,10.85,0,0,0-4.5-2.12A14.24,14.24,0,0,0,11.36,65.86Zm2.21-2.81a17.37,17.37,0,0,0,.59,9.09,10.17,10.17,0,0,1,2.95.21A22,22,0,0,0,13.57,63.05Zm9,10q-1.7-4.36-5-5a11.83,11.83,0,0,0,2.25,5.81A6.78,6.78,0,0,1,22.6,73Zm5.25,6.83q-2.45-4.24-6.06-4.75a7.25,7.25,0,0,0,1.34,5.11Q24.69,79.22,27.85,79.83ZM56,81.48Q59.58,78,56.88,73a18.94,18.94,0,0,0-5.18,7.41A7.17,7.17,0,0,1,56,81.48ZM19.67,19.69V57a19.83,19.83,0,1,0,39.65,0V19.69Zm4.25-9.21H19.84l3.3,2.4-1.26,3.88,3.3-2.4,3.3,2.4-1.26-3.88,3.3-2.4H26.44L25.18,6.6Zm14.48,0H34.32l3.3,2.4-1.26,3.88,3.3-2.4,3.3,2.4L41.7,12.88l3.3-2.4H40.92L39.66,6.6Zm14.48,0H48.8l3.3,2.4-1.26,3.88,3.3-2.4,3.3,2.4-1.26-3.88,3.3-2.4H55.4L54.14,6.6ZM62.11,72.2Q62.49,68,61.24,67a14.36,14.36,0,0,0-2,5.62A6,6,0,0,0,62.11,72.2Zm4.25-8.85q-3.57,6.29-3.49,9.23A8.28,8.28,0,0,0,67,72,10.13,10.13,0,0,0,66.36,63.35ZM64.72,56a11.12,11.12,0,0,0-1,8.83c2-3.94,4.49-6.68,7.59-8.25q-.35-5.09-1.67-6.45a12.5,12.5,0,0,0-2.57,9.19A7,7,0,0,1,64.72,56Zm4,11.6q3.95-3.22,3.05-8.89a12.83,12.83,0,0,1-4,2.67A19.78,19.78,0,0,1,68.74,67.58ZM67.36,27.27H63.28l3.3,2.4-1.26,3.88,3.3-2.4,3.31,2.4-1.27-3.88L74,27.27H69.88l-1.26-3.88Zm0-16.79H63.28l3.3,2.4-1.26,3.88,3.3-2.4,3.31,2.4-1.27-3.88L74,10.48H69.88L68.62,6.6ZM1.8,1.79H77.2V57.67a37.7,37.7,0,0,1-75.39,0Z"/><path class="cls-1" d="M193.05,37.22V35a4.57,4.57,0,0,1-2.46.94c-1.34.29-2.45.71-2.45,2.58,0,1.58,1,2.07,1.68,2.07A3.29,3.29,0,0,0,193.05,37.22Zm3.54-6.49V40c0,2,.36,2.48.8,2.68v.67h-3.9a9,9,0,0,1-.34-2,5.26,5.26,0,0,1-4.44,2.49c-2.07,0-4.18-1.46-4.18-5,0-3.36,1.7-5.07,4-5.49l3.25-.61a1.32,1.32,0,0,0,1.27-1.35c0-1.91-1.45-2-2.38-2-1.81,0-2.12,1.39-2.22,2.39H185c.4-5.26,3.32-6,6.14-6C193.05,25.76,196.59,26.5,196.59,30.73Zm-22.14,4.2c0,2,.64,5.19,3,5.19s3.2-2.39,3.2-4.94c0-2.74-.62-5.52-3.1-5.52C175.22,29.66,174.45,32.21,174.45,34.93Zm9.63-14.73V43.38h-3.53V41.22a4.33,4.33,0,0,1-4,2.62c-4.08,0-5.78-4.53-5.78-9.24,0-5.94,2.68-8.84,5.7-8.84a4.36,4.36,0,0,1,4,2.68l.05-8.24ZM169.67,20v4.19h-3.61V20Zm-3.61,6.23h3.61V43.38h-3.61Zm-1.33,5.23h-3.54c-.16-1.1-.47-2.26-2.43-2.26s-2.22.94-2.22,1.68c0,2.71,8.6.75,8.6,7.07,0,5-3.88,5.91-6,5.91-3.13,0-6.51-1.36-6.62-5.94h3.72c0,1.45.73,2.52,3,2.52,1.86,0,2.3-1.14,2.3-1.78,0-2.88-8.52-.71-8.52-7.13a7.37,7.37,0,0,1,.08-1.14,6.69,6.69,0,0,0-.77,0c-2.82,0-3.34,2.19-3.34,4.1v8.94h-3.61V26.21h3.46v3c.8-1.75,1.62-3.42,3.82-3.42a5.67,5.67,0,0,1,.7.06v3.47a5,5,0,0,1,5.21-3.53C161.24,25.76,164.44,26.6,164.73,31.44Zm-29.26,1.64h5.61c-.21-2.77-1.63-3.61-2.79-3.61C136.58,29.47,135.68,30.82,135.47,33.08Zm5.45,5.27h3.72c-.95,4.13-3.69,5.49-6,5.49-3.88,0-6.85-2.33-6.85-9.4,0-2.06.57-8.68,6.59-8.68,2.71,0,6.46,1.61,6.46,9.46V36h-9.43c.1,1.3.31,4.2,3.23,4.2A2.36,2.36,0,0,0,140.92,38.35Zm-8.28-12.14-5,17.17h-3.8L119,26.21h4l2.84,12.65,3-12.65ZM118.44,20v4.19h-3.62V20Zm-3.62,6.23h3.62V43.38h-3.62Zm-1.6,5.29V43.38h-3.61V33c0-1.25-.06-3.39-2.36-3.39-1.6,0-2.84,1.36-2.84,4v9.84H100.8V26.21h3.46v2.52a4.58,4.58,0,0,1,4.18-3C111.13,25.76,113.22,27.73,113.22,31.5Zm-14-11.3V35.28c0,6.1-2.94,8.72-7.62,8.72a7.12,7.12,0,0,1-5.89-2.81,9.94,9.94,0,0,1-1.44-5.62V20.2h3.95V35.25c0,3.23,1.5,4.65,3.31,4.65,2.66,0,3.74-1.61,3.74-4.43V20.2ZM244.17,55.64V67.52h-3.62V57.09c0-1.26-.05-3.39-2.35-3.39-1.6,0-2.84,1.35-2.84,4v9.85h-3.62V50.34h3.47v2.52a4.59,4.59,0,0,1,4.18-3C242.08,49.89,244.17,51.86,244.17,55.64Zm-16.82,3.29c0-2.2-.52-5.23-3.3-5.23s-3.31,3-3.31,5.23.52,5.23,3.31,5.23S227.35,61.12,227.35,58.93Zm3.72,0c0,6.2-3.33,9-7,9s-7-2.84-7-9,3.33-9,7-9S231.07,52.73,231.07,58.93ZM228.93,43.3,225.13,48h-2.61L225,43.3Zm-13,.81v4.2h-3.62v-4.2Zm-3.62,6.23H216V67.52h-3.62Zm-4.48,10.91h3.66C211.4,63,210.29,68,205.26,68c-4.64,0-6.07-4-6.32-7.41-.39,4-2.15,7.41-5.7,7.41a4,4,0,0,1-3.87-2.65l-.05,8.91H185.7V50.34h3.46v2.49c.72-1.36,1.73-2.94,4.16-2.94,2.8,0,5.31,2.49,5.67,7.58.42-4.51,2.41-7.58,6.5-7.58,2.17,0,5.73,1.22,6.07,6.59h-3.67c-.15-1.13-.72-2.91-2.4-2.78-2.28,0-2.87,2.84-2.87,5,0,1.87,0,5.59,2.79,5.59C207.24,64.26,207.87,62.06,207.87,61.25Zm-18.71-1.93c0,2.55.88,4.94,3.18,4.94s3-3.17,3-5.2c0-2.71-.78-5.26-3.08-5.26C189.76,53.8,189.16,56.57,189.16,59.32Zm-13.29-2.1h5.6c-.2-2.78-1.62-3.62-2.79-3.62C177,53.6,176.08,55,175.87,57.22Zm5.45,5.26H185c-1,4.13-3.7,5.49-6,5.49-3.16,0-5.73-1.55-6.56-6-.35,2.12-1.73,6-6.19,6-5.16,0-6.35-4.94-6.35-8.56,0-5.55,1.94-9.52,6.59-9.52,2.05,0,5.35,1.1,6,5.74.58-2.62,2.14-5.74,6.28-5.74,2.71,0,6.45,1.61,6.45,9.46v.8h-9.43c.11,1.3.32,4.2,3.23,4.2A2.37,2.37,0,0,0,181.32,62.48Zm-9-1.23a19.81,19.81,0,0,1-.16-2.68,14.11,14.11,0,0,1,.16-2.09h-3.43c-.16-1.13-.72-2.91-2.4-2.78-2.28,0-2.87,2.84-2.87,5,0,1.87,0,5.59,2.79,5.59,1.83,0,2.45-2.2,2.45-3Zm-13.12-5.61V67.52h-3.62V57.09c0-1.26,0-3.39-2.35-3.39-1.6,0-2.84,1.35-2.84,4v9.85h-3.62V50.34h3.47v2.52a4.59,4.59,0,0,1,4.18-3C157.1,49.89,159.19,51.86,159.19,55.64Zm-16.82,3.29c0-2.2-.52-5.23-3.31-5.23s-3.3,3-3.3,5.23.52,5.23,3.3,5.23S142.37,61.12,142.37,58.93Zm3.72,0c0,6.2-3.33,9-7,9-3.47,0-6.63-2.51-7-8-.85,4.81-3.47,8.13-8,8.13-4.94,0-8.47-4.17-8.47-12.17s3.74-12.24,8.52-12.24c5.56,0,7.8,4.78,8,8.2h-3.87c-.32-1.38-.91-4-4.11-4-1.86,0-4.6,1.55-4.6,8.1,0,4.17,1.32,7.91,4.6,7.91,2.14,0,3.64-1.52,4.11-4.35h3.78v-.65c0-6.2,3.33-9,7-9S146.09,52.73,146.09,58.93Zm-45.42-1.71h5.6c-.21-2.78-1.63-3.62-2.79-3.62C101.78,53.6,100.87,55,100.67,57.22Zm5.45,5.26h3.72c-1,4.13-3.7,5.49-6,5.49C99.92,68,97,65.65,97,58.57c0-2.06.56-8.68,6.58-8.68,2.72,0,6.46,1.61,6.46,9.46v.8h-9.43c.11,1.3.31,4.2,3.23,4.2A2.37,2.37,0,0,0,106.12,62.48ZM87,59.06c0,2,.64,5.2,3,5.2s3.2-2.39,3.2-4.94c0-2.75-.62-5.52-3.1-5.52C87.8,53.8,87,56.35,87,59.06Zm9.63-14.72V67.52H93.12V65.36a4.32,4.32,0,0,1-4,2.61C85,68,83.3,63.45,83.3,58.74c0-5.94,2.69-8.85,5.72-8.85a4.34,4.34,0,0,1,4,2.68L93,44.34ZM210.55,20.2V43.38H207V41.22a4.31,4.31,0,0,1-4,2.62c-4.08,0-5.78-4.53-5.78-9.24,0-5.94,2.68-8.84,5.71-8.84a4.36,4.36,0,0,1,4,2.68l.05-8.24Zm-9.63,14.73c0,2,.64,5.19,3,5.19s3.2-2.39,3.2-4.94c0-2.74-.62-5.52-3.1-5.52C201.69,29.66,200.92,32.21,200.92,34.93Z"/><path class="cls-1" d="M39.53,97.59A39.05,39.05,0,0,1,10.87,85.67,39.87,39.87,0,0,1,0,58V0H78.8V58A39.74,39.74,0,0,1,67.71,85.67,38.61,38.61,0,0,1,39.53,97.59ZM.6.6V58A39.26,39.26,0,0,0,11.31,85.25,38.45,38.45,0,0,0,39.53,97,38,38,0,0,0,67.28,85.25,39.17,39.17,0,0,0,78.18,58V.6Z"/><polygon class="cls-1" points="492.26 70.61 275.61 70.61 275.61 69.06 492.26 69.06 492.26 70.61 492.26 70.61"/><path class="cls-1" d="M278.06,22.18c0-5.07,0-6-.07-7.07s-.33-1.67-1.43-1.9a6.66,6.66,0,0,0-1.3-.1c-.37,0-.57-.07-.57-.3s.23-.3.74-.3c1.76,0,3.87.1,4.8.1s3.13-.1,5.14-.1c4.17,0,9.74,0,13.37,3.8A11.89,11.89,0,0,1,302,24.78a13.24,13.24,0,0,1-3.64,9.31c-1.53,1.57-5,3.94-11.17,3.94-1.2,0-2.57-.1-3.84-.2s-2.43-.2-3.27-.2c-.36,0-1.1,0-1.9,0s-1.64.07-2.3.07c-.43,0-.67-.1-.67-.34s.13-.26.53-.26a5.05,5.05,0,0,0,1.2-.14c.67-.13.84-.86,1-1.83.17-1.4.17-4,.17-7.11Zm4.17,3.67c0,3.54,0,6.11.07,6.74a7.34,7.34,0,0,0,.36,2.53c.44.64,1.74,1.34,4.37,1.34,3.41,0,5.68-.67,7.68-2.4s2.8-4.87,2.8-8.31a11.35,11.35,0,0,0-3.2-8.34,13.27,13.27,0,0,0-9.48-3.34,8.56,8.56,0,0,0-2.17.24.6.6,0,0,0-.4.67c0,1.13,0,4,0,6.67Z"/><path class="cls-1" d="M309,22.18c0-5.07,0-6-.06-7.07s-.41-1.7-1.14-1.87a4.75,4.75,0,0,0-1.2-.13c-.33,0-.53-.07-.53-.34s.26-.26.8-.26c1.26,0,3.37.1,4.33.1s2.8-.1,4.07-.1c.44,0,.7.06.7.26s-.2.34-.53.34a5.36,5.36,0,0,0-1,.1c-.9.16-1.17.73-1.23,1.9s-.07,2-.07,7.07v5.87c0,3.24,0,5.87.13,7.31.1.9.34,1.5,1.34,1.63a13.29,13.29,0,0,0,1.7.14c.37,0,.53.1.53.26s-.27.34-.63.34c-2.21,0-4.3-.1-5.2-.1s-2.88.1-4.21.1c-.43,0-.67-.1-.67-.34s.14-.26.54-.26a5.19,5.19,0,0,0,1.2-.14c.66-.13.87-.7,1-1.67.16-1.4.16-4,.16-7.27Z"/><path class="cls-1" d="M324,22.18c0-5.07,0-6-.06-7.07s-.34-1.67-1.44-1.9a6.59,6.59,0,0,0-1.3-.1c-.37,0-.57-.07-.57-.3s.24-.3.74-.3c1.77,0,3.87.1,4.57.1,1.13,0,3.67-.1,4.7-.1a10.7,10.7,0,0,1,6.14,1.43,5.79,5.79,0,0,1,2.27,4.57c0,2.47-1,4.74-4.41,7.48,3,3.73,5.28,6.7,7.24,8.77A6.69,6.69,0,0,0,345.65,37a5.92,5.92,0,0,0,.93.1c.27,0,.4.1.4.26s-.23.34-.63.34h-3.17a6.75,6.75,0,0,1-3.57-.64c-1.43-.76-2.7-2.33-4.57-4.9-1.33-1.84-2.87-4.1-3.3-4.6a.68.68,0,0,0-.6-.24l-2.9-.06c-.17,0-.27.06-.27.26V28c0,3.1,0,5.74.16,7.14.11,1,.31,1.7,1.31,1.83a14.56,14.56,0,0,0,1.63.14c.27,0,.4.1.4.26s-.23.34-.67.34c-1.93,0-4.4-.1-4.9-.1s-2.73.1-4.07.1c-.43,0-.67-.1-.67-.34s.14-.26.54-.26a5.19,5.19,0,0,0,1.2-.14c.67-.13.83-.86,1-1.83.17-1.4.17-4,.17-7.11ZM328,24.82c0,.36.07.5.3.6a8.9,8.9,0,0,0,2.53.33,3.3,3.3,0,0,0,2.37-.57c1-.73,2-2.26,2-5,0-4.74-3.13-6.11-5.1-6.11a7.2,7.2,0,0,0-1.77.14c-.23.07-.3.2-.3.47Z"/><path class="cls-1" d="M349.22,22.18c0-5.07,0-6-.07-7.07s-.33-1.67-1.43-1.9a6.66,6.66,0,0,0-1.3-.1c-.37,0-.57-.07-.57-.3s.23-.3.73-.3l2.71,0c.86,0,1.63.07,2.1.07,1.07,0,7.7,0,8.34,0a11,11,0,0,0,1.43-.2,3.53,3.53,0,0,1,.54-.13c.16,0,.2.13.2.3a20.35,20.35,0,0,0-.27,2.17c0,.33-.1,1.8-.17,2.2,0,.17-.1.37-.33.37s-.3-.17-.3-.47a3.51,3.51,0,0,0-.2-1.2c-.23-.6-.57-1-2.24-1.2-.56-.07-4.07-.13-4.73-.13-.17,0-.24.09-.24.33v8.44c0,.23,0,.37.24.37.73,0,4.57,0,5.33-.07a2.36,2.36,0,0,0,1.6-.5c.24-.27.37-.44.54-.44s.23.07.23.27-.13.74-.27,2.44c0,.66-.13,2-.13,2.23s0,.64-.3.64a.27.27,0,0,1-.3-.3,8.35,8.35,0,0,0-.13-1.21c-.17-.66-.64-1.16-1.87-1.3-.63-.06-3.94-.1-4.74-.1-.16,0-.2.14-.2.34v2.63c0,1.14,0,4.21,0,5.17.07,2.3.6,2.81,4,2.81a8.49,8.49,0,0,0,3.14-.4c.87-.41,1.27-1.11,1.5-2.47.07-.37.14-.5.37-.5s.27.26.27.6a25.82,25.82,0,0,1-.44,3.7c-.23.87-.53.87-1.8.87-2.5,0-4.34-.07-5.77-.1s-2.47-.1-3.47-.1c-.37,0-1.1,0-1.9,0s-1.64.07-2.3.07c-.44,0-.67-.1-.67-.34s.13-.26.53-.26a5.19,5.19,0,0,0,1.2-.14c.67-.13.84-.86,1-1.83.17-1.4.17-4,.17-7.11Z"/><path class="cls-1" d="M370.8,34.56a12.58,12.58,0,0,1-4.13-9.84,12.54,12.54,0,0,1,3.9-9.14C373,13.37,376.14,12,381.11,12a33.13,33.13,0,0,1,4.84.33c1.27.17,2.33.47,3.33.57.37,0,.51.2.51.4s-.11.67-.17,1.84,0,2.93-.1,3.6c0,.5-.1.77-.4.77s-.34-.27-.34-.74a4.73,4.73,0,0,0-1.3-3.07c-1.1-1.17-3.7-2.07-6.77-2.07a8.72,8.72,0,0,0-6.27,2.07c-2.43,2.24-3.07,5.41-3.07,8.64,0,7.94,6,11.88,10.51,11.88,3,0,4.77-.34,6.1-1.87a5.61,5.61,0,0,0,1.14-2.2c.1-.53.16-.67.43-.67s.3.23.3.5a32.31,32.31,0,0,1-.73,4.44,1.19,1.19,0,0,1-.87,1,19.45,19.45,0,0,1-6,.76C377.67,38.19,373.84,37.19,370.8,34.56Z"/><path class="cls-1" d="M397.49,34.56a12.61,12.61,0,0,1-4.13-9.84,12.54,12.54,0,0,1,3.9-9.14c2.4-2.21,5.57-3.54,10.54-3.54a33.13,33.13,0,0,1,4.84.33c1.26.17,2.33.47,3.33.57.37,0,.5.2.5.4s-.09.67-.16,1.84,0,2.93-.1,3.6c0,.5-.1.77-.4.77s-.34-.27-.34-.74a4.73,4.73,0,0,0-1.3-3.07c-1.1-1.17-3.7-2.07-6.77-2.07a8.72,8.72,0,0,0-6.27,2.07c-2.44,2.24-3.07,5.41-3.07,8.64,0,7.94,6,11.88,10.51,11.88,3,0,4.77-.34,6.1-1.87a5.61,5.61,0,0,0,1.14-2.2c.1-.53.16-.67.43-.67s.3.23.3.5a32.31,32.31,0,0,1-.73,4.44,1.19,1.19,0,0,1-.87,1,19.43,19.43,0,0,1-6,.76C404.36,38.19,400.53,37.19,397.49,34.56Z"/><path class="cls-1" d="M423.68,22.18c0-5.07,0-6-.07-7.07s-.4-1.7-1.13-1.87a4.75,4.75,0,0,0-1.2-.13c-.33,0-.54-.07-.54-.34s.27-.26.8-.26c1.27,0,3.38.1,4.34.1s2.81-.1,4.07-.1c.44,0,.7.06.7.26s-.2.34-.53.34a5.36,5.36,0,0,0-1,.1c-.9.16-1.17.73-1.24,1.9s-.06,2-.06,7.07v5.87c0,3.24,0,5.87.13,7.31.1.9.34,1.5,1.33,1.63a13.45,13.45,0,0,0,1.71.14c.36,0,.53.1.53.26s-.27.34-.64.34c-2.19,0-4.3-.1-5.2-.1s-2.87.1-4.2.1c-.43,0-.67-.1-.67-.34s.14-.26.54-.26a5.27,5.27,0,0,0,1.2-.14c.66-.13.86-.7,1-1.67.17-1.4.17-4,.17-7.27Z"/><path class="cls-1" d="M434.79,25.12c0-5.71,3.77-13.08,13.78-13.08,8.3,0,13.47,4.84,13.47,12.48s-5.33,13.67-13.8,13.67C438.66,38.19,434.79,31,434.79,25.12Zm22.58.63c0-7.47-4.3-12.11-9.77-12.11-3.84,0-8.21,2.14-8.21,10.44,0,6.94,3.84,12.45,10.24,12.45C452,36.53,457.37,35.39,457.37,25.75ZM453.94,7.2c.2.4,0,.5-.17.5a6.33,6.33,0,0,0-1.13,0,20.25,20.25,0,0,0-5.71,2,3.92,3.92,0,0,1-.56.27.22.22,0,0,1-.21-.2c0-.14.14-.27.31-.44a63.55,63.55,0,0,1,5.37-4.2,1.39,1.39,0,0,1,.67-.3c.23,0,.29.1.46.4C453.24,5.67,453.54,6.3,453.94,7.2Z"/><path class="cls-1" d="M470.89,33.19c.06,2.6.5,3.47,1.17,3.7a5.28,5.28,0,0,0,1.73.24c.37,0,.57.06.57.26s-.3.34-.77.34c-2.17,0-3.5-.1-4.14-.1-.3,0-1.87.1-3.6.1-.43,0-.73,0-.73-.34s.2-.26.53-.26a6.11,6.11,0,0,0,1.5-.17c.87-.27,1-1.24,1-4.14l.29-19.75c0-.66.11-1.13.44-1.13s.67.43,1.24,1c.39.44,5.47,5.87,10.33,10.71,2.27,2.27,6.78,7.07,7.34,7.61H488l-.33-15c0-2-.34-2.67-1.14-3a5.45,5.45,0,0,0-1.77-.2c-.4,0-.53-.1-.53-.3s.37-.3.87-.3c1.73,0,3.34.1,4,.1.36,0,1.63-.1,3.26-.1.44,0,.77,0,.77.3s-.2.3-.6.3a3.64,3.64,0,0,0-1,.1c-.93.26-1.2,1-1.23,2.83L490,37.09c0,.74-.14,1-.43,1s-.77-.37-1.14-.74c-2.1-2-6.37-6.37-9.84-9.8-3.64-3.61-7.34-7.78-7.94-8.41h-.1Z"/><path class="cls-1" d="M277.57,50.37c0-4.13,0-4.89-.05-5.76s-.28-1.35-1.17-1.54a5.1,5.1,0,0,0-1.06-.09c-.3,0-.46,0-.46-.24s.19-.24.6-.24c1.44,0,3.14.08,3.9.08s2.56-.08,4.19-.08c3.39,0,7.92,0,10.88,3.09A9.67,9.67,0,0,1,297,52.48a10.81,10.81,0,0,1-3,7.58c-1.24,1.27-4.07,3.2-9.09,3.2-1,0-2.09-.08-3.12-.16s-2-.16-2.66-.16c-.3,0-.9,0-1.55,0s-1.33.06-1.87.06c-.35,0-.55-.08-.55-.27s.11-.22.44-.22a4.14,4.14,0,0,0,1-.11c.54-.11.68-.71.78-1.49.14-1.14.14-3.29.14-5.79Zm3.39,3c0,2.88,0,5,.06,5.49a5.68,5.68,0,0,0,.3,2.06c.35.52,1.41,1.09,3.55,1.09,2.77,0,4.62-.55,6.25-2s2.28-4,2.28-6.76a9.19,9.19,0,0,0-2.61-6.78,10.76,10.76,0,0,0-7.71-2.72,7.11,7.11,0,0,0-1.76.19.49.49,0,0,0-.33.54c0,.93,0,3.29,0,5.43Z"/><path class="cls-1" d="M302.71,50.37c0-4.13,0-4.89-.06-5.76s-.27-1.35-1.16-1.54a5.1,5.1,0,0,0-1.06-.09c-.3,0-.46,0-.46-.24s.19-.24.59-.24l2.2,0c.71,0,1.33.06,1.71.06.87,0,6.27,0,6.79,0a11,11,0,0,0,1.17-.16,2.26,2.26,0,0,1,.43-.11c.14,0,.16.11.16.24s-.13.52-.21,1.77c0,.27-.08,1.46-.14,1.79,0,.13-.08.3-.27.3s-.25-.14-.25-.38a2.79,2.79,0,0,0-.16-1c-.19-.49-.46-.81-1.82-1-.46,0-3.31-.11-3.85-.11-.14,0-.19.09-.19.28v6.86c0,.19,0,.3.19.3.59,0,3.72,0,4.34,0s1.06-.14,1.3-.41.3-.35.44-.35.19,0,.19.21-.11.6-.22,2c0,.54-.11,1.63-.11,1.82s0,.51-.24.51a.21.21,0,0,1-.24-.24,7.93,7.93,0,0,0-.11-1c-.14-.54-.52-.95-1.53-1.06-.51-.05-3.2-.08-3.85-.08-.13,0-.16.11-.16.27v2.14c0,.93,0,3.43,0,4.21.05,1.88.49,2.28,3.26,2.28a7,7,0,0,0,2.55-.32c.7-.33,1-.9,1.22-2,0-.3.11-.41.3-.41s.22.22.22.49a20.65,20.65,0,0,1-.36,3c-.19.71-.43.71-1.46.71-2,0-3.53-.06-4.7-.08s-2-.08-2.82-.08c-.3,0-.9,0-1.55,0s-1.33.06-1.87.06c-.36,0-.55-.08-.55-.27s.11-.22.44-.22a4.21,4.21,0,0,0,1-.11c.54-.11.67-.71.78-1.49.14-1.14.14-3.29.14-5.79Z"/><path class="cls-1" d="M328,50.37c0-4.13,0-4.89-.06-5.76s-.27-1.35-1.16-1.54a5.1,5.1,0,0,0-1.06-.09c-.3,0-.46,0-.46-.24s.19-.24.6-.24c1.43,0,3.14.08,3.9.08s2.56-.08,4.18-.08c3.4,0,7.93,0,10.89,3.09a9.67,9.67,0,0,1,2.63,6.89,10.81,10.81,0,0,1-3,7.58c-1.24,1.27-4.07,3.2-9.09,3.2-1,0-2.09-.08-3.12-.16s-2-.16-2.66-.16c-.3,0-.9,0-1.55,0s-1.33.06-1.87.06c-.35,0-.55-.08-.55-.27s.11-.22.44-.22a4.14,4.14,0,0,0,1-.11c.54-.11.68-.71.78-1.49.14-1.14.14-3.29.14-5.79Zm3.39,3c0,2.88,0,5,.06,5.49a5.93,5.93,0,0,0,.29,2.06c.36.52,1.42,1.09,3.56,1.09,2.77,0,4.62-.55,6.24-2s2.28-4,2.28-6.76a9.19,9.19,0,0,0-2.6-6.78,10.76,10.76,0,0,0-7.71-2.72,7.27,7.27,0,0,0-1.77.19.5.5,0,0,0-.32.54c0,.93,0,3.29,0,5.43Z"/><path class="cls-1" d="M350.46,52.76c0-4.65,3.07-10.65,11.21-10.65,6.76,0,11,3.94,11,10.16S368.29,63.4,361.4,63.4C353.61,63.4,350.46,57.56,350.46,52.76Zm18.38.51c0-6.08-3.51-9.85-8-9.85-3.12,0-6.67,1.74-6.67,8.49,0,5.65,3.12,10.13,8.33,10.13C364.44,62,368.84,61.12,368.84,53.27Z"/><path class="cls-1" d="M379,60.44A10.77,10.77,0,0,1,378.8,45c2-1.79,4.54-2.88,8.58-2.88a25.87,25.87,0,0,1,3.94.28c1,.13,1.9.38,2.71.46.3,0,.41.16.41.32s-.08.55-.14,1.5,0,2.39-.08,2.93-.08.62-.33.62-.27-.21-.27-.59a3.81,3.81,0,0,0-1.06-2.5c-.89-1-3-1.68-5.51-1.68a7,7,0,0,0-5.1,1.68c-2,1.82-2.5,4.4-2.5,7,0,6.46,4.92,9.66,8.55,9.66,2.42,0,3.89-.27,5-1.52a4.38,4.38,0,0,0,.92-1.79c.09-.43.14-.54.36-.54s.24.19.24.41a24.92,24.92,0,0,1-.6,3.61.94.94,0,0,1-.7.78,15.57,15.57,0,0,1-4.89.63C384.58,63.4,381.46,62.58,379,60.44Z"/><path class="cls-1" d="M400.3,50.37c0-4.13,0-4.89-.05-5.76s-.27-1.35-1.17-1.54A5.1,5.1,0,0,0,398,43c-.3,0-.46,0-.46-.24s.19-.24.6-.24l2.2,0c.7,0,1.33.06,1.71.06.86,0,6.27,0,6.78,0a11,11,0,0,0,1.17-.16,2.47,2.47,0,0,1,.43-.11c.14,0,.17.11.17.24a16.55,16.55,0,0,0-.22,1.77c0,.27-.08,1.46-.14,1.79,0,.13-.08.3-.27.3s-.24-.14-.24-.38a3,3,0,0,0-.16-1c-.19-.49-.47-.81-1.82-1-.46,0-3.31-.11-3.86-.11-.13,0-.19.09-.19.28v6.86c0,.19,0,.3.19.3.6,0,3.72,0,4.35,0a1.94,1.94,0,0,0,1.3-.41c.19-.22.3-.35.43-.35s.19,0,.19.21-.1.6-.22,2c0,.54-.1,1.63-.1,1.82s0,.51-.25.51a.21.21,0,0,1-.24-.24,7.93,7.93,0,0,0-.11-1c-.14-.54-.51-.95-1.52-1.06-.52-.05-3.2-.08-3.86-.08-.13,0-.16.11-.16.27v2.14c0,.93,0,3.43,0,4.21.06,1.88.49,2.28,3.26,2.28a7,7,0,0,0,2.55-.32c.71-.33,1-.9,1.22-2,.06-.3.11-.41.3-.41s.22.22.22.49a20.65,20.65,0,0,1-.36,3c-.18.71-.43.71-1.46.71-2,0-3.53-.06-4.7-.08s-2-.08-2.82-.08c-.3,0-.9,0-1.55,0s-1.33.06-1.87.06c-.35,0-.54-.08-.54-.27s.11-.22.43-.22a4.14,4.14,0,0,0,1-.11c.54-.11.68-.71.78-1.49.14-1.14.14-3.29.14-5.79Z"/><path class="cls-1" d="M419,59.33c0,2.11.4,2.82.95,3a4.39,4.39,0,0,0,1.41.19c.3,0,.46,0,.46.22s-.24.27-.62.27c-1.77,0-2.85-.08-3.37-.08-.24,0-1.52.08-2.93.08-.35,0-.6,0-.6-.27s.17-.22.44-.22a4.76,4.76,0,0,0,1.22-.14c.71-.21.81-1,.84-3.36L417,43c0-.55.09-.93.36-.93s.54.36,1,.84,4.45,4.78,8.42,8.72c1.84,1.84,5.51,5.75,6,6.19h.13l-.27-12.19c0-1.66-.27-2.17-.92-2.44a4.27,4.27,0,0,0-1.44-.17c-.32,0-.43-.08-.43-.24s.29-.24.7-.24c1.41,0,2.72.08,3.29.08.3,0,1.33-.08,2.66-.08.35,0,.62,0,.62.24s-.16.24-.49.24a2.65,2.65,0,0,0-.81.09c-.76.21-1,.78-1,2.3l-.29,17.13c0,.6-.11.84-.36.84s-.62-.3-.92-.59c-1.71-1.63-5.18-5.19-8-8-3-2.94-6-6.33-6.46-6.85h-.08Z"/><path class="cls-1" d="M443.3,60.44A10.77,10.77,0,0,1,443.11,45c2-1.79,4.54-2.88,8.58-2.88a25.87,25.87,0,0,1,3.94.28c1,.13,1.9.38,2.71.46.3,0,.41.16.41.32s-.08.55-.13,1.5,0,2.39-.09,2.93-.08.62-.32.62-.28-.21-.28-.59a3.85,3.85,0,0,0-1.05-2.5c-.9-1-3-1.68-5.51-1.68a7.07,7.07,0,0,0-5.11,1.68c-2,1.82-2.49,4.4-2.49,7,0,6.46,4.91,9.66,8.55,9.66,2.41,0,3.88-.27,5-1.52a4.54,4.54,0,0,0,.93-1.79c.08-.43.13-.54.35-.54s.24.19.24.41a26.1,26.1,0,0,1-.59,3.61,1,1,0,0,1-.71.78,15.51,15.51,0,0,1-4.88.63C448.9,63.4,445.77,62.58,443.3,60.44Z"/><path class="cls-1" d="M464.61,50.37c0-4.13,0-4.89-.05-5.76s-.33-1.38-.92-1.52a3.93,3.93,0,0,0-1-.11c-.27,0-.44,0-.44-.27s.22-.21.66-.21c1,0,2.74.08,3.53.08s2.28-.08,3.31-.08c.35,0,.57,0,.57.21s-.17.27-.44.27a4.09,4.09,0,0,0-.81.09c-.73.13-1,.59-1,1.54s-.06,1.63-.06,5.76v4.77c0,2.64,0,4.78.11,6,.08.73.27,1.22,1.08,1.33a10.43,10.43,0,0,0,1.39.11c.3,0,.43.08.43.22s-.22.27-.51.27c-1.79,0-3.51-.08-4.24-.08s-2.33.08-3.42.08c-.35,0-.54-.08-.54-.27s.11-.22.43-.22a4.08,4.08,0,0,0,1-.11c.54-.11.71-.57.79-1.36.13-1.14.13-3.28.13-5.92Z"/><path class="cls-1" d="M478,55.93c-.13,0-.19.06-.24.22L476.26,60a5.33,5.33,0,0,0-.41,1.66c0,.49.25.84,1.09.84h.4c.33,0,.41,0,.41.22s-.16.27-.46.27c-.87,0-2-.08-2.88-.08-.3,0-1.79.08-3.2.08-.35,0-.52-.06-.52-.27s.11-.22.33-.22.62,0,.84-.05c1.25-.17,1.77-1.09,2.31-2.45L481,43c.33-.78.49-1.08.76-1.08s.41.24.68.87c.65,1.49,5,12.57,6.74,16.69,1,2.44,1.81,2.83,2.38,3a6.15,6.15,0,0,0,1.14.11c.22,0,.36,0,.36.22s-.25.27-1.25.27-3,0-5.13-.06c-.49,0-.82,0-.82-.21s.11-.22.38-.25a.44.44,0,0,0,.25-.62l-2.18-5.76a.26.26,0,0,0-.27-.19Zm5.54-1.35c.13,0,.16-.09.13-.17l-2.44-6.7c0-.11-.05-.25-.14-.25s-.13.14-.16.25l-2.5,6.68c0,.1,0,.19.11.19Z"/><path class="cls-1" d="M277.1,80.74c0-1.8,0-2.13,0-2.51s-.12-.59-.52-.68a3,3,0,0,0-.47,0c-.14,0-.21,0-.21-.11s.09-.1.27-.1c.64,0,1.4,0,1.76,0l1.49,0c.18,0,.26,0,.26.1s-.07.11-.19.11a2.26,2.26,0,0,0-.35,0c-.33.06-.42.26-.45.68s0,.71,0,2.51v1.65c0,1.72.35,2.44.94,2.91a2.24,2.24,0,0,0,1.51.48,2.42,2.42,0,0,0,1.67-.63c.66-.66.7-1.72.7-2.94V80.74c0-1.8,0-2.13,0-2.51s-.12-.59-.52-.68a2.72,2.72,0,0,0-.43,0c-.13,0-.21,0-.21-.11s.09-.1.26-.1c.62,0,1.38,0,1.39,0s.9,0,1.38,0c.16,0,.25,0,.25.1s-.07.11-.22.11a2.26,2.26,0,0,0-.35,0c-.32.06-.42.26-.45.68s0,.71,0,2.51V82c0,1.31-.13,2.71-1.15,3.56a3.66,3.66,0,0,1-2.51.85,4,4,0,0,1-2.68-.81,3.84,3.84,0,0,1-1.08-3.14Z"/><path class="cls-1" d="M288.6,84.64c0,.92.18,1.23.42,1.31a2,2,0,0,0,.63.08c.13,0,.2,0,.2.1s-.11.12-.28.12c-.78,0-1.26,0-1.49,0s-.68,0-1.31,0c-.16,0-.26,0-.26-.12s.07-.1.19-.1a2,2,0,0,0,.54-.06c.32-.09.37-.43.38-1.46l.11-7c0-.24,0-.4.15-.4s.25.15.45.36,2,2.08,3.74,3.8c.83.8,2.46,2.5,2.66,2.69h.06l-.12-5.31c0-.72-.12-.94-.41-1.06a2,2,0,0,0-.64-.07c-.14,0-.19,0-.19-.11s.13-.1.31-.1c.63,0,1.21,0,1.47,0s.59,0,1.18,0c.16,0,.28,0,.28.1s-.08.11-.22.11a1.54,1.54,0,0,0-.36,0c-.34.1-.44.35-.45,1L295.51,86c0,.26-.05.37-.16.37s-.28-.13-.41-.26c-.76-.71-2.31-2.26-3.57-3.48s-2.65-2.75-2.87-3h0Z"/><path class="cls-1" d="M299.37,80.74c0-1.8,0-2.13,0-2.51s-.14-.6-.41-.66a1.54,1.54,0,0,0-.43,0c-.13,0-.2,0-.2-.12s.1-.09.29-.09l1.57,0,1.48,0c.15,0,.25,0,.25.09s-.07.12-.19.12a2.38,2.38,0,0,0-.36,0c-.33.06-.43.26-.45.68s0,.71,0,2.51v2.08c0,1.14,0,2.08.05,2.59,0,.32.12.53.49.58a5.86,5.86,0,0,0,.61,0c.13,0,.2,0,.2.1s-.1.12-.24.12c-.79,0-1.55,0-1.88,0s-1,0-1.52,0q-.24,0-.24-.12c0-.06,0-.1.19-.1a2.45,2.45,0,0,0,.44,0c.24,0,.31-.25.34-.6a24.25,24.25,0,0,0,.07-2.57Z"/><path class="cls-1" d="M303.72,78.46c-.28-.65-.49-.78-.92-.89a1.82,1.82,0,0,0-.47,0c-.11,0-.15,0-.15-.11s.14-.1.32-.1c.64,0,1.33,0,1.75,0s.88,0,1.49,0c.14,0,.27,0,.27.1s-.07.11-.18.11a.9.9,0,0,0-.47.08.29.29,0,0,0-.12.25,3.44,3.44,0,0,0,.28.91l2.08,5.37h0c.51-1.3,2.08-5.11,2.37-5.89a1.41,1.41,0,0,0,.11-.44.22.22,0,0,0-.15-.22,1.61,1.61,0,0,0-.49-.06c-.11,0-.2,0-.2-.09s.11-.12.34-.12c.6,0,1.11,0,1.26,0l1.14,0c.16,0,.25,0,.25.1s-.07.11-.19.11a1.08,1.08,0,0,0-.59.14c-.16.11-.34.31-.67,1.07-.47,1.11-.79,1.74-1.45,3.2-.77,1.73-1.34,3-1.6,3.61s-.39.87-.56.87-.23-.16-.46-.72Z"/><path class="cls-1" d="M313.58,80.74c0-1.8,0-2.13,0-2.51s-.12-.59-.52-.68a3,3,0,0,0-.47,0c-.14,0-.21,0-.21-.11s.09-.1.27-.1h1l.76,0h3a5.12,5.12,0,0,0,.52-.07,1.33,1.33,0,0,1,.19-.05c.06,0,.07.05.07.11a6.42,6.42,0,0,0-.09.77c0,.12,0,.64-.07.78s0,.13-.11.13-.12-.06-.12-.17a1.22,1.22,0,0,0-.07-.42c-.08-.22-.2-.36-.81-.43-.2,0-1.47,0-1.71,0q-.09,0-.09.12v3c0,.08,0,.13.09.13.26,0,1.65,0,1.93,0s.47-.06.58-.18.13-.15.2-.15.08,0,.08.09-.05.26-.1.87c0,.23-.05.7-.05.79s0,.22-.1.22-.11,0-.11-.1,0-.28-.05-.43-.23-.41-.68-.46c-.23,0-1.42,0-1.71,0-.07,0-.08,0-.08.12v.94c0,.4,0,1.49,0,1.83,0,.81.22,1,1.45,1a3.19,3.19,0,0,0,1.14-.14c.31-.14.46-.39.54-.87,0-.14,0-.18.14-.18s.09.09.09.21A7.82,7.82,0,0,1,318.3,86c-.08.31-.19.31-.65.31-.9,0-1.57,0-2.09,0s-.89,0-1.25,0h-.69c-.28,0-.6,0-.84,0s-.24,0-.24-.12,0-.1.2-.1a2.33,2.33,0,0,0,.43,0c.24,0,.3-.31.35-.66s.06-1.43.06-2.51Z"/><path class="cls-1" d="M321.22,80.74c0-1.8,0-2.13,0-2.51s-.13-.59-.52-.68a3.09,3.09,0,0,0-.47,0c-.14,0-.21,0-.21-.11s.09-.1.27-.1c.64,0,1.4,0,1.65,0l1.7,0a4,4,0,0,1,2.23.5,2,2,0,0,1,.82,1.62,3.29,3.29,0,0,1-1.59,2.65c1.07,1.33,1.9,2.38,2.62,3.11a2.43,2.43,0,0,0,1.35.81l.34,0c.09,0,.14,0,.14.1s-.08.12-.23.12h-1.15a2.47,2.47,0,0,1-1.29-.23,5.67,5.67,0,0,1-1.65-1.74c-.49-.65-1-1.45-1.2-1.63a.25.25,0,0,0-.22-.08l-1.05,0c-.06,0-.1,0-.1.09v.16a23.81,23.81,0,0,0,.07,2.53c0,.35.1.61.47.66.18,0,.44,0,.59,0s.14,0,.14.1-.08.12-.24.12c-.7,0-1.59,0-1.77,0s-1,0-1.48,0c-.15,0-.24,0-.24-.12s.05-.1.19-.1a2.36,2.36,0,0,0,.44,0c.24,0,.3-.31.35-.66s.06-1.43.06-2.51Zm1.42.93c0,.13,0,.18.12.21a3.28,3.28,0,0,0,.91.12,1.25,1.25,0,0,0,.86-.2,2.07,2.07,0,0,0,.71-1.78,1.91,1.91,0,0,0-1.85-2.16,2.36,2.36,0,0,0-.63,0c-.09,0-.12.07-.12.17Z"/><path class="cls-1" d="M329.5,86.1c-.19-.08-.23-.14-.23-.4,0-.65.05-1.36.06-1.55s.05-.31.15-.31.12.11.12.21a3,3,0,0,0,.1.6,1.68,1.68,0,0,0,1.73,1.19,1.46,1.46,0,0,0,1.62-1.35c0-.58-.18-1.12-1.18-1.89l-.56-.42c-1.33-1-1.79-1.85-1.79-2.8,0-1.3,1.12-2.24,2.8-2.24a6,6,0,0,1,1.6.2c.11,0,.17.06.17.14s0,.5,0,1.42c0,.26,0,.36-.13.36s-.12-.07-.12-.22a1.41,1.41,0,0,0-.32-.78,1.54,1.54,0,0,0-1.31-.58c-.9,0-1.44.51-1.44,1.22,0,.55.28,1,1.28,1.71l.34.24c1.46,1.08,2,1.9,2,3a2.37,2.37,0,0,1-1.14,2.06,3.61,3.61,0,0,1-1.92.48A4.17,4.17,0,0,1,329.5,86.1Z"/><path class="cls-1" d="M337.2,80.74c0-1.8,0-2.13,0-2.51s-.15-.6-.41-.66a1.65,1.65,0,0,0-.44,0c-.12,0-.19,0-.19-.12s.09-.09.29-.09l1.57,0,1.47,0c.16,0,.25,0,.25.09s-.07.12-.19.12l-.36,0c-.33.06-.42.26-.45.68s0,.71,0,2.51v2.08c0,1.14,0,2.08.05,2.59,0,.32.12.53.48.58a6,6,0,0,0,.61,0c.14,0,.2,0,.2.1s-.1.12-.23.12c-.8,0-1.56,0-1.89,0s-1,0-1.52,0c-.15,0-.24,0-.24-.12s0-.1.19-.1a2.36,2.36,0,0,0,.44,0c.24,0,.31-.25.35-.6s.06-1.43.06-2.57Z"/><path class="cls-1" d="M342.66,80.74c0-1.8,0-2.13,0-2.51s-.12-.59-.52-.68a3,3,0,0,0-.47,0c-.14,0-.21,0-.21-.11s.09-.1.27-.1c.64,0,1.4,0,1.74,0s1.13,0,1.86,0c1.51,0,3.53,0,4.84,1.34a4.17,4.17,0,0,1,1.17,3A4.64,4.64,0,0,1,350,85,5.61,5.61,0,0,1,346,86.35c-.43,0-.93,0-1.39-.07s-.88-.07-1.18-.07h-.69c-.28,0-.59,0-.84,0s-.23,0-.23-.12,0-.1.19-.1a2.33,2.33,0,0,0,.43,0c.24,0,.3-.31.35-.66s.06-1.43.06-2.51Zm1.51,1.3c0,1.25,0,2.16,0,2.38a2.41,2.41,0,0,0,.13.9c.16.23.63.48,1.58.48a3.9,3.9,0,0,0,2.78-.86,3.69,3.69,0,0,0,1-2.94,4,4,0,0,0-1.16-3,4.85,4.85,0,0,0-3.43-1.18,3.77,3.77,0,0,0-.79.08.22.22,0,0,0-.15.24c0,.4,0,1.43,0,2.37Z"/><path class="cls-1" d="M354.46,83.16c-.06,0-.08,0-.11.09l-.65,1.69a2.3,2.3,0,0,0-.18.72c0,.22.11.37.48.37h.18c.15,0,.18,0,.18.1s-.07.12-.2.12c-.39,0-.91,0-1.28,0-.14,0-.8,0-1.43,0-.15,0-.23,0-.23-.12s0-.1.15-.1l.37,0c.56-.07.79-.47,1-1.07l3-7.42c.15-.34.22-.47.34-.47s.18.1.3.38c.29.65,2.22,5.47,3,7.27.46,1.06.81,1.23,1.06,1.29a3.16,3.16,0,0,0,.51,0c.1,0,.15,0,.15.1s-.1.12-.55.12-1.32,0-2.28,0c-.22,0-.37,0-.37-.09s.05-.1.17-.11a.19.19,0,0,0,.11-.27l-1-2.51a.11.11,0,0,0-.11-.08Zm2.46-.59c.07,0,.08,0,.07-.07l-1.09-2.92s0-.11-.06-.11-.06.06-.07.11l-1.12,2.9s0,.09.05.09Z"/><path class="cls-1" d="M362.44,80.74c0-1.8,0-2.13,0-2.51s-.12-.59-.52-.68a2.91,2.91,0,0,0-.47,0c-.13,0-.2,0-.2-.11s.08-.1.26-.1c.64,0,1.41,0,1.74,0s1.14,0,1.86,0c1.52,0,3.53,0,4.85,1.34a4.22,4.22,0,0,1,1.17,3,4.65,4.65,0,0,1-1.32,3.3,5.58,5.58,0,0,1-4,1.39c-.44,0-.93,0-1.39-.07s-.89-.07-1.19-.07h-.68c-.28,0-.6,0-.84,0s-.24,0-.24-.12.05-.1.19-.1a2.45,2.45,0,0,0,.44,0c.24,0,.3-.31.35-.66s.06-1.43.06-2.51ZM364,82c0,1.25,0,2.16,0,2.38a2.39,2.39,0,0,0,.14.9c.15.23.62.48,1.58.48a3.93,3.93,0,0,0,2.78-.86,3.68,3.68,0,0,0,1-2.94,4,4,0,0,0-1.16-3,4.85,4.85,0,0,0-3.43-1.18,3.66,3.66,0,0,0-.78.08.22.22,0,0,0-.15.24c0,.4,0,1.43,0,2.37Z"/><path class="cls-1" d="M377.38,80.74c0-1.8,0-2.13,0-2.51s-.12-.59-.52-.68a2.91,2.91,0,0,0-.47,0c-.13,0-.2,0-.2-.11s.08-.1.26-.1c.64,0,1.4,0,1.74,0s1.14,0,1.86,0c1.51,0,3.53,0,4.85,1.34a4.22,4.22,0,0,1,1.17,3,4.65,4.65,0,0,1-1.32,3.3,5.59,5.59,0,0,1-4.05,1.39c-.43,0-.92,0-1.38-.07s-.89-.07-1.19-.07h-.69l-.83,0q-.24,0-.24-.12c0-.06.05-.1.19-.1a2.45,2.45,0,0,0,.44,0c.24,0,.3-.31.35-.66s.06-1.43.06-2.51Zm1.51,1.3c0,1.25,0,2.16,0,2.38a2.64,2.64,0,0,0,.13.9c.16.23.63.48,1.59.48a3.89,3.89,0,0,0,2.77-.86,3.65,3.65,0,0,0,1-2.94,4,4,0,0,0-1.16-3,4.85,4.85,0,0,0-3.43-1.18,3.85,3.85,0,0,0-.79.08.23.23,0,0,0-.14.24c0,.4,0,1.43,0,2.37Z"/><path class="cls-1" d="M388.57,80.74c0-1.8,0-2.13,0-2.51s-.12-.59-.52-.68a3.09,3.09,0,0,0-.47,0c-.14,0-.21,0-.21-.11s.08-.1.26-.1h1l.75,0h3l.52-.07a1.33,1.33,0,0,1,.19-.05c.06,0,.07.05.07.11a7.64,7.64,0,0,0-.1.77c0,.12,0,.64-.06.78s0,.13-.12.13-.11-.06-.11-.17a1.22,1.22,0,0,0-.07-.42c-.08-.22-.2-.36-.81-.43-.2,0-1.47,0-1.71,0q-.09,0-.09.12v3c0,.08,0,.13.09.13.26,0,1.65,0,1.93,0s.47-.06.58-.18.13-.15.19-.15a.08.08,0,0,1,.09.09c0,.07-.05.26-.1.87,0,.23-.05.7-.05.79s0,.22-.11.22-.11,0-.11-.1a3.62,3.62,0,0,0,0-.43c-.06-.24-.23-.41-.68-.46-.23,0-1.43,0-1.71,0-.07,0-.08,0-.08.12v.94c0,.4,0,1.49,0,1.83,0,.81.22,1,1.45,1a3.19,3.19,0,0,0,1.14-.14c.31-.14.46-.39.54-.87,0-.14,0-.18.14-.18s.09.09.09.21a7.82,7.82,0,0,1-.16,1.31c-.08.31-.19.31-.65.31-.9,0-1.57,0-2.09,0s-.89,0-1.25,0h-.69c-.28,0-.6,0-.84,0s-.24,0-.24-.12.05-.1.19-.1a2.36,2.36,0,0,0,.44,0c.24,0,.3-.31.35-.66s.06-1.43.06-2.51Z"/><path class="cls-1" d="M400,85.12a4.62,4.62,0,0,1-.09-6.73,5.35,5.35,0,0,1,3.82-1.25,12.21,12.21,0,0,1,1.75.12c.46.06.85.17,1.21.2.13,0,.18.07.18.14s0,.24-.06.65,0,1,0,1.28,0,.27-.15.27-.12-.09-.12-.26a1.67,1.67,0,0,0-.47-1.09,3.69,3.69,0,0,0-2.46-.73,3.22,3.22,0,0,0-2.27.73,3.93,3.93,0,0,0-1.11,3.07A4,4,0,0,0,404,85.73a2.64,2.64,0,0,0,2.21-.67,1.91,1.91,0,0,0,.41-.78c0-.19.06-.23.16-.23s.11.08.11.17a11.57,11.57,0,0,1-.27,1.58.42.42,0,0,1-.32.34,7.09,7.09,0,0,1-2.17.27A6.1,6.1,0,0,1,400,85.12Z"/><path class="cls-1" d="M408.19,81.78a4.6,4.6,0,0,1,5-4.64c3,0,4.88,1.72,4.88,4.42a4.72,4.72,0,0,1-5,4.85A4.55,4.55,0,0,1,408.19,81.78Zm8.18.22c0-2.65-1.56-4.29-3.54-4.29-1.39,0-3,.75-3,3.7,0,2.46,1.39,4.41,3.72,4.41C414.41,85.82,416.37,85.42,416.37,82Z"/><path class="cls-1" d="M421.27,84.64c0,.92.18,1.23.42,1.31a2,2,0,0,0,.63.08c.13,0,.2,0,.2.1s-.11.12-.28.12c-.78,0-1.26,0-1.49,0s-.68,0-1.31,0c-.16,0-.26,0-.26-.12s.07-.1.19-.1a2,2,0,0,0,.54-.06c.32-.09.37-.43.38-1.46l.11-7c0-.24,0-.4.15-.4s.25.15.45.36,2,2.08,3.74,3.8c.83.8,2.46,2.5,2.66,2.69h.06l-.12-5.31c0-.72-.12-.94-.41-1.06a2,2,0,0,0-.64-.07c-.14,0-.19,0-.19-.11s.13-.1.31-.1c.63,0,1.21,0,1.47,0s.59,0,1.18,0c.16,0,.28,0,.28.1s-.08.11-.22.11a1.54,1.54,0,0,0-.36,0c-.34.1-.44.35-.45,1L428.18,86c0,.26-.05.37-.16.37s-.28-.13-.41-.26c-.76-.71-2.31-2.26-3.57-3.48s-2.65-2.75-2.87-3h0Z"/><path class="cls-1" d="M432.1,85.12a4.62,4.62,0,0,1-.09-6.73,5.35,5.35,0,0,1,3.82-1.25,12.21,12.21,0,0,1,1.75.12c.46.06.85.17,1.21.2.13,0,.18.07.18.14s0,.24-.06.65,0,1,0,1.28,0,.27-.14.27-.12-.09-.12-.26a1.67,1.67,0,0,0-.47-1.09,3.69,3.69,0,0,0-2.46-.73,3.22,3.22,0,0,0-2.27.73,3.93,3.93,0,0,0-1.11,3.07,4,4,0,0,0,3.81,4.21,2.64,2.64,0,0,0,2.21-.67,2,2,0,0,0,.41-.78c0-.19.06-.23.16-.23s.11.08.11.17a11.57,11.57,0,0,1-.27,1.58.42.42,0,0,1-.31.34,7.16,7.16,0,0,1-2.18.27A6.08,6.08,0,0,1,432.1,85.12Z"/><path class="cls-1" d="M441.59,80.74c0-1.8,0-2.13,0-2.51s-.12-.59-.52-.68a2.91,2.91,0,0,0-.47,0c-.13,0-.2,0-.2-.11s.08-.1.26-.1h1l.76,0h3a5.12,5.12,0,0,0,.52-.07,1.33,1.33,0,0,1,.19-.05c.06,0,.08.05.08.11a7.64,7.64,0,0,0-.1.77c0,.12,0,.64-.06.78s0,.13-.12.13-.11-.06-.11-.17a1.22,1.22,0,0,0-.07-.42c-.09-.22-.21-.36-.81-.43-.21,0-1.48,0-1.72,0-.06,0-.08,0-.08.12v3c0,.08,0,.13.08.13.27,0,1.66,0,1.94,0a.9.9,0,0,0,.58-.18c.08-.09.13-.15.19-.15s.08,0,.08.09,0,.26-.09.87c0,.23-.05.7-.05.79s0,.22-.11.22-.11,0-.11-.1a2.37,2.37,0,0,0-.05-.43c-.06-.24-.23-.41-.68-.46-.23,0-1.42,0-1.71,0-.06,0-.07,0-.07.12v.94c0,.4,0,1.49,0,1.83,0,.81.21,1,1.45,1a3.14,3.14,0,0,0,1.13-.14c.32-.14.46-.39.55-.87,0-.14,0-.18.13-.18s.1.09.1.21a9,9,0,0,1-.16,1.31c-.09.31-.19.31-.65.31-.91,0-1.57,0-2.09,0s-.9,0-1.26,0h-.69c-.28,0-.59,0-.83,0s-.24,0-.24-.12,0-.1.19-.1a2.24,2.24,0,0,0,.43,0c.25,0,.31-.31.35-.66a23.59,23.59,0,0,0,.07-2.51Z"/><path class="cls-1" d="M449.23,80.74c0-1.8,0-2.13,0-2.51s-.12-.59-.52-.68a3,3,0,0,0-.47,0c-.13,0-.21,0-.21-.11s.09-.1.27-.1c.64,0,1.4,0,1.74,0l1.75,0A3,3,0,0,1,454,78a2.06,2.06,0,0,1,.6,1.41,2.81,2.81,0,0,1-3,2.86h-.25c-.06,0-.15,0-.15-.11s.09-.13.34-.13a1.87,1.87,0,0,0,1.62-2,2.26,2.26,0,0,0-.71-1.77,1.85,1.85,0,0,0-1.21-.47,2,2,0,0,0-.47,0c-.06,0-.1.1-.1.23v4.73c0,1.08,0,2,.06,2.53,0,.33.11.59.47.64.17,0,.44,0,.62,0s.19,0,.19.1-.09.12-.23.12c-.79,0-1.56,0-1.87,0s-1,0-1.52,0q-.24,0-.24-.12c0-.06,0-.1.19-.1a2.24,2.24,0,0,0,.43,0c.25,0,.3-.31.35-.66a23.59,23.59,0,0,0,.07-2.51Z"/><path class="cls-1" d="M457.32,85.12a4.63,4.63,0,0,1-.08-6.73,5.35,5.35,0,0,1,3.82-1.25,12.32,12.32,0,0,1,1.75.12c.46.06.84.17,1.21.2.13,0,.18.07.18.14s0,.24-.06.65,0,1,0,1.28,0,.27-.14.27-.12-.09-.12-.26a1.68,1.68,0,0,0-.48-1.09,3.66,3.66,0,0,0-2.45-.73,3.2,3.2,0,0,0-2.27.73,3.93,3.93,0,0,0-1.11,3.07,4,4,0,0,0,3.8,4.21c1.08,0,1.73-.12,2.21-.67a1.94,1.94,0,0,0,.42-.78c0-.19.06-.23.15-.23s.11.08.11.17A11.27,11.27,0,0,1,464,85.8a.43.43,0,0,1-.32.34,7.09,7.09,0,0,1-2.17.27A6.11,6.11,0,0,1,457.32,85.12Z"/><path class="cls-1" d="M466.81,80.74c0-1.8,0-2.13,0-2.51s-.15-.6-.41-.66a1.61,1.61,0,0,0-.44,0c-.12,0-.19,0-.19-.12s.09-.09.29-.09l1.57,0,1.47,0c.16,0,.26,0,.26.09s-.08.12-.2.12a2.49,2.49,0,0,0-.36,0c-.33.06-.42.26-.45.68s0,.71,0,2.51v2.08c0,1.14,0,2.08.05,2.59,0,.32.12.53.48.58.17,0,.44,0,.62,0s.19,0,.19.1-.1.12-.23.12c-.8,0-1.56,0-1.88,0s-1,0-1.53,0c-.15,0-.24,0-.24-.12s.05-.1.2-.1a2.33,2.33,0,0,0,.43,0c.24,0,.31-.25.35-.6s.06-1.43.06-2.57Z"/><path class="cls-1" d="M470.84,81.78a4.6,4.6,0,0,1,5-4.64c3,0,4.88,1.72,4.88,4.42a4.72,4.72,0,0,1-5,4.85A4.55,4.55,0,0,1,470.84,81.78ZM479,82c0-2.65-1.55-4.29-3.53-4.29-1.39,0-3,.75-3,3.7,0,2.46,1.39,4.41,3.71,4.41C477.06,85.82,479,85.42,479,82Zm-1.24-6.57c.07.14,0,.17-.06.17a2.5,2.5,0,0,0-.41,0,7.62,7.62,0,0,0-2.07.7,1.14,1.14,0,0,1-.2.1.09.09,0,0,1-.07-.08s.05-.09.11-.15A23.05,23.05,0,0,1,477,74.68a.6.6,0,0,1,.24-.11c.09,0,.11,0,.17.15A5.86,5.86,0,0,1,477.77,75.43Z"/><path class="cls-1" d="M483.91,84.64c0,.92.19,1.23.43,1.31A2,2,0,0,0,485,86c.13,0,.2,0,.2.1s-.11.12-.28.12c-.78,0-1.27,0-1.5,0s-.67,0-1.3,0c-.16,0-.27,0-.27-.12s.08-.1.2-.1a2.08,2.08,0,0,0,.54-.06c.31-.09.36-.43.38-1.46l.1-7c0-.24,0-.4.16-.4s.24.15.45.36,2,2.08,3.74,3.8c.82.8,2.46,2.5,2.66,2.69h.06L490,78.65c0-.72-.12-.94-.41-1.06a2,2,0,0,0-.64-.07c-.14,0-.19,0-.19-.11s.13-.1.31-.1c.63,0,1.21,0,1.46,0s.6,0,1.19,0c.16,0,.27,0,.27.1s-.07.11-.21.11a1.67,1.67,0,0,0-.37,0c-.33.1-.43.35-.44,1L490.82,86c0,.26,0,.37-.15.37s-.28-.13-.41-.26c-.76-.71-2.31-2.26-3.57-3.48s-2.65-2.75-2.87-3h0Z"/></g></g></svg>