<svg xmlns="http://www.w3.org/2000/svg" xmlns:xlink="http://www.w3.org/1999/xlink" viewBox="0 0 38.96 28.19"><defs><style>.cls-1,.cls-7{fill:none;}.cls-2{isolation:isolate;}.cls-3{clip-path:url(#clip-path);}.cls-4{opacity:0.95;mix-blend-mode:multiply;}.cls-5{fill:#e6e6e6;opacity:0.43;}.cls-6{clip-path:url(#clip-path-2);}.cls-7{stroke:#fff;stroke-miterlimit:10;stroke-width:2.5px;}.cls-8{fill:#fff;}</style><clipPath id="clip-path"><rect class="cls-1" x="88.2" y="-438.67" width="1366" height="768"/></clipPath><clipPath id="clip-path-2"><rect class="cls-1" x="-1610.02" y="-438.67" width="1366" height="768"/></clipPath></defs><title>Madrugada</title><g class="cls-2"><g id="Capa_1" data-name="Capa 1"><g class="cls-3"><g class="cls-4"><rect class="cls-5" x="-25.39" y="-21.85" width="11.71" height="130.39" transform="translate(-66.8 38.21) rotate(-108.04)"/><rect class="cls-5" x="-22.3" y="-124.05" width="12.57" height="131.02" transform="translate(17.35 -7.84) rotate(-18.04)"/></g></g><g class="cls-6"><g class="cls-4"><rect class="cls-5" x="-126.5" y="-22.06" width="129.85" height="129.85" transform="translate(-16.3 -16.96) rotate(-18.04)"/><path class="cls-5" d="M55.56,2.86A30.49,30.49,0,0,1,17.17-16.66,30.49,30.49,0,0,1,36.7-55,30.49,30.49,0,0,1,75.08-35.53,30.49,30.49,0,0,1,55.56,2.86ZM41.31-40.88a15.57,15.57,0,0,0-10,19.6,15.57,15.57,0,0,0,19.61,10,15.57,15.57,0,0,0,10-19.61A15.57,15.57,0,0,0,41.31-40.88Z"/></g></g><path class="cls-7" d="M12.75,15.13a7,7,0,1,1,14,0"/><path class="cls-8" d="M20,0.65l3.26,4.12c0.14,0.18-.11.39-0.37,0.31l-3-.91a0.4,0.4,0,0,0-.23,0l-3,.91c-0.26.08-.51-0.13-0.37-0.31L19.5,0.65A0.36,0.36,0,0,1,20,.65Z"/><path class="cls-8" d="M7.06,8.5l1.8,4.94c0.08,0.22.39,0.11,0.46-.15l0.82-3.06A0.4,0.4,0,0,1,10.25,10l2.37-2.1c0.21-.18.16-0.51-0.07-0.48l-5.22.61A0.36,0.36,0,0,0,7.06,8.5Z"/><path class="cls-8" d="M32.44,8.5l-1.8,4.94c-0.08.22-.39,0.11-0.46-0.15l-0.82-3.06A0.4,0.4,0,0,0,29.26,10l-2.37-2.1c-0.21-.18-0.16-0.51.07-0.48l5.22,0.61A0.36,0.36,0,0,1,32.44,8.5Z"/><line class="cls-7" x1="1.16" y1="16.26" x2="38.35" y2="16.26"/><polyline class="cls-7" points="14.53 26.76 19.78 21.51 24.98 26.71"/></g></g></svg>