<svg xmlns="http://www.w3.org/2000/svg" xmlns:xlink="http://www.w3.org/1999/xlink" viewBox="0 0 30.42 31.12"><defs><style>.cls-1,.cls-7{fill:none;}.cls-2{isolation:isolate;}.cls-3{clip-path:url(#clip-path);}.cls-4{opacity:0.95;mix-blend-mode:multiply;}.cls-5{fill:#e6e6e6;opacity:0.43;}.cls-6{clip-path:url(#clip-path-2);}.cls-7{stroke:#fff;stroke-miterlimit:10;stroke-width:2.5px;}.cls-8{fill:#fff;}</style><clipPath id="clip-path"><rect class="cls-1" x="155.62" y="-314.32" width="1366" height="768"/></clipPath><clipPath id="clip-path-2"><rect class="cls-1" x="-1542.6" y="-314.32" width="1366" height="768"/></clipPath></defs><title>Mañana</title><g class="cls-2"><g id="Capa_1" data-name="Capa 1"><g class="cls-3"><g class="cls-4"><path class="cls-5" d="M51.92-21.68L37.75-17.06A47.42,47.42,0,0,0-22-47.43a47.42,47.42,0,0,0-30.36,59.7l-14.17,4.62A62.33,62.33,0,0,1-26.57-61.59,62.33,62.33,0,0,1,51.92-21.68Z"/><rect class="cls-5" x="-21.26" y="21.92" width="12.57" height="131.02" transform="translate(-27.82 -0.34) rotate(-18.04)"/><rect class="cls-5" x="-12.01" y="16.57" width="12.57" height="40.86" transform="translate(-11.74 0.05) rotate(-18.04)"/><rect class="cls-5" x="10.81" y="9.14" width="12.57" height="40.86" transform="translate(-8.32 6.75) rotate(-18.04)"/><rect class="cls-5" x="45.11" y="0.3" width="12.57" height="131.02" transform="translate(-17.85 19.16) rotate(-18.04)"/></g></g><g class="cls-6"><g class="cls-4"><rect class="cls-5" x="20.79" y="-233.24" width="127.56" height="281.34" transform="translate(32.83 21.64) rotate(-18.04)"/><polygon class="cls-5" points="42.19 69.18 -121.49 -14.07 1.97 -54.29 42.19 69.18"/></g></g><circle class="cls-7" cx="15.83" cy="15.5" r="7"/><path class="cls-8" d="M16.09,1l3.26,4.12c0.14,0.18-.11.39-0.37,0.31l-3-.91a0.4,0.4,0,0,0-.23,0l-3,.91c-0.26.08-.51-0.13-0.37-0.31L15.57,1A0.36,0.36,0,0,1,16.09,1Z"/><path class="cls-8" d="M15.57,30l-3.26-4.12c-0.14-.18.11-0.39,0.37-0.31l3,0.91a0.4,0.4,0,0,0,.23,0l3-.91c0.26-.08.51,0.13,0.37,0.31L16.09,30A0.36,0.36,0,0,1,15.57,30Z"/><path class="cls-8" d="M3.14,22.25l1.8-4.94c0.08-.22.39-0.11,0.46,0.15l0.82,3.06a0.4,0.4,0,0,0,.12.19l2.37,2.1c0.21,0.18.16,0.51-.07,0.48l-5.22-.61A0.36,0.36,0,0,1,3.14,22.25Z"/><path class="cls-8" d="M3.14,8.87l1.8,4.94C5,14,5.32,13.92,5.39,13.65l0.82-3.06a0.4,0.4,0,0,1,.12-0.19L8.7,8.3c0.21-.18.16-0.51-0.07-0.48l-5.22.61A0.36,0.36,0,0,0,3.14,8.87Z"/><path class="cls-8" d="M28.52,22.25l-1.8-4.94c-0.08-.22-0.39-0.11-0.46.15l-0.82,3.06a0.4,0.4,0,0,1-.12.19L23,22.82C22.75,23,22.8,23.32,23,23.3l5.22-.61A0.36,0.36,0,0,0,28.52,22.25Z"/><path class="cls-8" d="M28.52,8.87l-1.8,4.94c-0.08.22-.39,0.11-0.46-0.15l-0.82-3.06a0.4,0.4,0,0,0-.12-0.19L23,8.3c-0.21-.18-0.16-0.51.07-0.48l5.22,0.61A0.36,0.36,0,0,1,28.52,8.87Z"/></g></g></svg>