<svg xmlns="http://www.w3.org/2000/svg" xmlns:xlink="http://www.w3.org/1999/xlink" viewBox="0 0 22.48 29.68"><defs><style>.cls-1,.cls-7{fill:none;}.cls-2{isolation:isolate;}.cls-3{clip-path:url(#clip-path);}.cls-4{opacity:0.95;mix-blend-mode:multiply;}.cls-5{fill:#e6e6e6;opacity:0.43;}.cls-6{clip-path:url(#clip-path-2);}.cls-7{stroke:#fff;stroke-linecap:round;stroke-linejoin:round;stroke-width:2.5px;}.cls-8{fill:#fff;}</style><clipPath id="clip-path"><rect class="cls-1" x="78.08" y="-381.51" width="1366" height="768"/></clipPath><clipPath id="clip-path-2"><rect class="cls-1" x="-1620.14" y="-381.51" width="1366" height="768"/></clipPath></defs><title>Noche</title><g class="cls-2"><g id="Capa_1" data-name="Capa 1"><g class="cls-3"><g class="cls-4"><rect class="cls-5" x="-32.43" y="-66.9" width="12.57" height="131.02" transform="translate(-0.86 -8.17) rotate(-18.04)"/><rect class="cls-5" x="-9.6" y="-74.33" width="12.57" height="131.02" transform="translate(2.57 -1.46) rotate(-18.04)"/></g></g><g class="cls-6"><g class="cls-4"><rect class="cls-5" x="-136.62" y="35.1" width="129.85" height="129.85" transform="translate(-34.51 -17.29) rotate(-18.04)"/><path class="cls-5" d="M45.44,60A30.45,30.45,0,1,1,65,21.63,30.49,30.49,0,0,1,45.44,60ZM31.19,16.28a15.55,15.55,0,1,0,19.61,10A15.57,15.57,0,0,0,31.19,16.28Z"/></g></g><path class="cls-7" d="M8,11.71a10,10,0,0,1,.44-2.95A10,10,0,1,0,21,21.27a10,10,0,0,1-2.95.44c-2.88,0-5.87-.83-7.7-2.77C8.63,17.15,8,14.35,8,11.71Z"/><polygon class="cls-8" points="15.05 0 16.36 2.65 19.28 3.07 17.16 5.13 17.66 8.04 15.05 6.67 12.44 8.04 12.94 5.13 10.82 3.07 13.74 2.65 15.05 0"/><polygon class="cls-8" points="20.26 11.54 20.95 12.94 22.48 13.16 21.37 14.24 21.63 15.78 20.26 15.05 18.88 15.78 19.14 14.24 18.03 13.16 19.57 12.94 20.26 11.54"/></g></g></svg>