<svg xmlns="http://www.w3.org/2000/svg" xmlns:xlink="http://www.w3.org/1999/xlink" viewBox="0 0 23.46 21.81"><defs><style>.cls-1{fill:none;}.cls-2{isolation:isolate;}.cls-3{clip-path:url(#clip-path);}.cls-4{opacity:0.95;mix-blend-mode:multiply;}.cls-5{fill:#e6e6e6;opacity:0.43;}.cls-6{clip-path:url(#clip-path-2);}.cls-7{fill:#3c3c3b;}</style><clipPath id="clip-path"><rect class="cls-1" x="281.51" y="-391.26" width="1366" height="768"/></clipPath><clipPath id="clip-path-2"><rect class="cls-1" x="-1416.71" y="-391.26" width="1366" height="768"/></clipPath></defs><title>Notificar</title><g class="cls-2"><g id="Capa_1" data-name="Capa 1"><g class="cls-3"><g class="cls-4"><path class="cls-5" d="M24.43,27.47A22.35,22.35,0,1,1,10.58-15,22.35,22.35,0,1,1,24.43,27.47ZM15.2-.87a7.45,7.45,0,1,0,9.39,4.78A7.46,7.46,0,0,0,15.2-.87Z"/></g></g><g class="cls-6"><g class="cls-4"><rect class="cls-5" x="-132.03" y="-64.41" width="130.19" height="129.85" transform="translate(-3.45 -20.71) rotate(-18.04)"/><polygon class="cls-5" points="-148.94 -41.05 15.06 42.09 -108.72 82.41 -148.94 -41.05"/></g></g><path class="cls-7" d="M20.72,4.39h-3V6.67h3a0.46,0.46,0,0,1,.46.46V17.48l-0.72-1a2.38,2.38,0,0,0-2-1H9.81a0.46,0.46,0,0,1-.46-0.46v-0.3H7.06v0.3a2.75,2.75,0,0,0,2.75,2.75l8.76,0c2.44,3.61,3,4,3.64,4a1.33,1.33,0,0,0,.4-0.07,1.23,1.23,0,0,0,.85-1.2V7.14A2.75,2.75,0,0,0,20.72,4.39Z"/><path class="cls-7" d="M13.66,0H2.75A2.75,2.75,0,0,0,0,2.75V16.07a1.22,1.22,0,0,0,.86,1.2,1.33,1.33,0,0,0,.4.07c0.63,0,1.19-.4,3.72-4.05h8.68a2.75,2.75,0,0,0,2.75-2.75V2.75A2.75,2.75,0,0,0,13.66,0ZM2.28,2.75a0.46,0.46,0,0,1,.46-0.46H13.66a0.46,0.46,0,0,1,.46.46v7.79a0.46,0.46,0,0,1-.46.46H5a2.38,2.38,0,0,0-2,1l-0.72,1V2.75Z"/></g></g></svg>