<svg id="Capa_1" data-name="Capa 1" xmlns="http://www.w3.org/2000/svg" viewBox="0 0 27.44 34.62"><defs><style>.cls-1{fill:#3c3c3b;}</style></defs><title>11</title><path class="cls-1" d="M26.22,34.62h-25A1.22,1.22,0,0,1,0,33.4V1.22A1.22,1.22,0,0,1,1.22,0H17.43a1.22,1.22,0,0,1,.87.36l8.78,8.78a1.22,1.22,0,0,1,.36.87V33.4A1.22,1.22,0,0,1,26.22,34.62ZM2.45,32.18H25V10.51L16.93,2.45H2.45V32.18Z"/><path class="cls-1" d="M25.57,10.78H17.31a0.65,0.65,0,0,1-.65-0.65V1.87a0.65,0.65,0,0,1,1.11-.46L26,9.67A0.65,0.65,0,0,1,25.57,10.78Z"/><path class="cls-1" d="M10.1,14.25a6.26,6.26,0,0,1,.68-0.52,4.86,4.86,0,0,1,.79-0.43A5,5,0,0,1,12.5,13a5.31,5.31,0,0,1,1.08-.1,4.5,4.5,0,0,1,1.44.22,3.24,3.24,0,0,1,1.11.62,2.78,2.78,0,0,1,.72,1A3.12,3.12,0,0,1,17.11,16a3.24,3.24,0,0,1-.2,1.19,3.33,3.33,0,0,1-.5.88,4.05,4.05,0,0,1-.66.64l-0.67.51a5.37,5.37,0,0,0-.55.47,0.93,0.93,0,0,0-.28.52L14,21.56H12.5l-0.15-1.48a0.44,0.44,0,0,1,0-.08V19.93a1.21,1.21,0,0,1,.2-0.69,2.79,2.79,0,0,1,.5-0.55q0.3-.26.65-0.5a5.81,5.81,0,0,0,.65-0.53,2.66,2.66,0,0,0,.5-0.65,1.74,1.74,0,0,0,.2-0.85,1.35,1.35,0,0,0-.12-0.59,1.32,1.32,0,0,0-.34-0.45A1.54,1.54,0,0,0,14,14.82a2.12,2.12,0,0,0-.66-0.1,2.93,2.93,0,0,0-.88.11,3.2,3.2,0,0,0-.61.25l-0.42.25a0.58,0.58,0,0,1-.31.11,0.5,0.5,0,0,1-.47-0.27ZM11.82,25a1.39,1.39,0,0,1,.1-0.54A1.27,1.27,0,0,1,12.21,24a1.43,1.43,0,0,1,.44-0.29,1.37,1.37,0,0,1,.55-0.11,1.35,1.35,0,0,1,.54.11,1.34,1.34,0,0,1,.73.73,1.38,1.38,0,0,1,0,1.08,1.38,1.38,0,0,1-.29.43,1.33,1.33,0,0,1-.44.29,1.41,1.41,0,0,1-.54.1,1.43,1.43,0,0,1-.55-0.1,1.38,1.38,0,0,1-.44-0.29,1.28,1.28,0,0,1-.29-0.43A1.38,1.38,0,0,1,11.82,25Z"/></svg>