<svg id="Capa_1" data-name="Capa 1" xmlns="http://www.w3.org/2000/svg" viewBox="0 0 35.53 36.93"><defs><style>.cls-1{fill:#3c3c3b;}</style></defs><title>5</title><path class="cls-1" d="M34.29,32.13A1.25,1.25,0,0,1,33,30.88V11.22L24.31,2.49H8.61V14.17a1.25,1.25,0,0,1-2.49,0V1.25A1.25,1.25,0,0,1,7.37,0H24.83a1.25,1.25,0,0,1,.88.37l9.46,9.46a1.25,1.25,0,0,1,.37.88V30.88A1.25,1.25,0,0,1,34.29,32.13Z"/><path class="cls-1" d="M34.29,32.62H26.46a1.25,1.25,0,1,1,0-2.49h7.82A1.25,1.25,0,0,1,34.29,32.62Z"/><path class="cls-1" d="M33.59,11.54H24.7a0.7,0.7,0,0,1-.7-0.7V1.95a0.7,0.7,0,0,1,1.19-.49l8.89,8.89A0.7,0.7,0,0,1,33.59,11.54Z"/><path class="cls-1" d="M1.25,36.93a1.25,1.25,0,0,1-.73-2.26l7.27-5.22a1.25,1.25,0,1,1,1.46,2L2,36.69A1.24,1.24,0,0,1,1.25,36.93Z"/><path class="cls-1" d="M14.74,34.26a9.43,9.43,0,1,1,9.43-9.43A9.44,9.44,0,0,1,14.74,34.26Zm0-16.37a6.94,6.94,0,1,0,6.94,6.94A6.95,6.95,0,0,0,14.74,17.89Z"/></svg>