<svg xmlns="http://www.w3.org/2000/svg" xmlns:xlink="http://www.w3.org/1999/xlink" viewBox="0 0 39.25 29.75"><defs><style>.cls-1,.cls-7{fill:none;}.cls-2{isolation:isolate;}.cls-3{clip-path:url(#clip-path);}.cls-4{opacity:0.95;mix-blend-mode:multiply;}.cls-5{fill:#e6e6e6;opacity:0.43;}.cls-6{clip-path:url(#clip-path-2);}.cls-7{stroke:#fff;stroke-miterlimit:10;stroke-width:2.5px;}.cls-8{fill:#fff;}</style><clipPath id="clip-path"><rect class="cls-1" x="94.39" y="-336.73" width="1366" height="768"/></clipPath><clipPath id="clip-path-2"><rect class="cls-1" x="-1603.83" y="-336.73" width="1366" height="768"/></clipPath></defs><title>Tarde</title><g class="cls-2"><g id="Capa_1" data-name="Capa 1"><g class="cls-3"><g class="cls-4"><rect class="cls-5" x="-16.12" y="-22.12" width="12.57" height="131.02" transform="translate(-13.92 -0.91) rotate(-18.04)"/><rect class="cls-5" x="6.71" y="-29.55" width="12.57" height="131.02" transform="translate(-10.5 5.79) rotate(-18.04)"/></g></g><g class="cls-6"><g class="cls-4"><rect class="cls-5" x="-40.44" y="-255.66" width="127.56" height="281.34" transform="translate(36.76 1.57) rotate(-18.04)"/></g></g><path class="cls-7" d="M12.3,15.71a7,7,0,0,1,14,0"/><path class="cls-8" d="M19.56,1.22l3.26,4.12c0.14,0.18-.11.39-0.37,0.31l-3-.91a0.4,0.4,0,0,0-.23,0l-3,.91c-0.26.08-.51-0.13-0.37-0.31L19,1.22A0.36,0.36,0,0,1,19.56,1.22Z"/><path class="cls-8" d="M6.61,9.08L8.41,14c0.08,0.22.39,0.11,0.46-.15L9.68,10.8a0.4,0.4,0,0,1,.12-0.19l2.37-2.1C12.38,8.32,12.33,8,12.1,8l-5.22.61A0.36,0.36,0,0,0,6.61,9.08Z"/><path class="cls-8" d="M32,9.08L30.2,14c-0.08.22-.39,0.11-0.46-0.15L28.92,10.8a0.4,0.4,0,0,0-.12-0.19l-2.37-2.1C26.23,8.32,26.27,8,26.5,8l5.22,0.61A0.36,0.36,0,0,1,32,9.08Z"/><line class="cls-7" x1="0.71" y1="16.83" x2="37.9" y2="16.83"/><polyline class="cls-7" points="24.53 21.08 19.28 26.33 14.08 21.13"/></g></g></svg>