<svg xmlns="http://www.w3.org/2000/svg" xmlns:xlink="http://www.w3.org/1999/xlink" viewBox="0 0 24 25.83"><defs><style>.cls-1{fill:none;}.cls-2{isolation:isolate;}.cls-3{clip-path:url(#clip-path);}.cls-4{opacity:0.95;mix-blend-mode:multiply;}.cls-5{fill:#e6e6e6;}.cls-5,.cls-7{opacity:0.43;}.cls-6{clip-path:url(#clip-path-2);}.cls-8{fill:#3c3c3b;}.cls-9{fill:#f6f6f6;}</style><clipPath id="clip-path"><rect class="cls-1" x="234.49" y="-480.53" width="1366" height="768"/></clipPath><clipPath id="clip-path-2"><rect class="cls-1" x="-1463.73" y="-480.53" width="1366" height="768"/></clipPath></defs><title>Mensaje</title><g class="cls-2"><g id="Capa_1" data-name="Capa 1"><g class="cls-3"><g class="cls-4"><path class="cls-5" d="M0.64,8.19A30.49,30.49,0,0,1-37.75-11.33,30.49,30.49,0,0,1-18.23-49.72,30.49,30.49,0,0,1,20.16-30.2,30.49,30.49,0,0,1,.64,8.19ZM-13.61-35.55a15.57,15.57,0,0,0-10,19.61A15.57,15.57,0,0,0-4-6,15.57,15.57,0,0,0,6-25.58,15.57,15.57,0,0,0-13.61-35.55Z"/></g></g><g class="cls-6"><g class="cls-4"><rect class="cls-5" x="19.79" y="-63.92" width="129.85" height="129.85" transform="translate(3.86 26.29) rotate(-18.04)"/></g></g><path class="cls-1" d="M20.49,18.13H7a1.93,1.93,0,0,0-1.6.85C4.07,20.91,1,25.33,1,24.25V3.5A2.51,2.51,0,0,1,3.5,1h17A2.51,2.51,0,0,1,23,3.5V15.63A2.51,2.51,0,0,1,20.49,18.13Z"/><path class="cls-8" d="M1.18,25.45a1.37,1.37,0,0,1-.41-0.08A1.13,1.13,0,0,1,0,24.25V3.5A3.51,3.51,0,0,1,3.5,0h17A3.51,3.51,0,0,1,24,3.5V15.63a3.51,3.51,0,0,1-3.5,3.5H7a0.93,0.93,0,0,0-.77.41C2.76,24.63,1.83,25.45,1.18,25.45ZM3.5,2A1.5,1.5,0,0,0,2,3.5V22c0.61-.8,1.44-2,2.54-3.59A2.93,2.93,0,0,1,7,17.13H20.49a1.5,1.5,0,0,0,1.5-1.5V3.5A1.5,1.5,0,0,0,20.49,2H3.5Z"/><line class="cls-9" x1="18.41" y1="5.95" x2="5.58" y2="5.95"/><rect class="cls-8" x="5.58" y="4.95" width="12.83" height="2"/><line class="cls-9" x1="18.41" y1="9.57" x2="5.58" y2="9.57"/><rect class="cls-8" x="5.58" y="8.57" width="12.83" height="2"/><line class="cls-9" x1="14.77" y1="13.2" x2="5.58" y2="13.2"/><rect class="cls-8" x="5.58" y="12.2" width="9.19" height="2"/></g></g></svg>