<svg id="Capa_1" data-name="Capa 1" xmlns="http://www.w3.org/2000/svg" viewBox="0 0 36.77 23.7"><defs><style>.cls-1{fill:#3c3c3b;}</style></defs><title>12</title><path class="cls-1" d="M25.44,23.7H1.21A1.21,1.21,0,0,1,0,22.49V1.21A1.21,1.21,0,0,1,1.21,0H25.44a1.21,1.21,0,0,1,1.21,1.21V22.49A1.21,1.21,0,0,1,25.44,23.7Zm-23-2.42h21.8V2.42H2.42V21.28Z"/><path class="cls-1" d="M35.56,23.21A1.21,1.21,0,0,1,35,23L24.83,17.2a1.21,1.21,0,0,1-.61-1V7.55a1.21,1.21,0,0,1,.61-1L35,0.66a1.21,1.21,0,0,1,1.82,1V22A1.21,1.21,0,0,1,35.56,23.21Zm-8.91-7.75,7.7,4.44V3.81l-7.7,4.44v7.2Z"/></svg>