<svg id="Capa_1" data-name="Capa 1" xmlns="http://www.w3.org/2000/svg" viewBox="0 0 26.76 34.96">
    <defs>
        <style>.cls-1{fill:#3c3c3b;}</style>
    </defs>
    <title>1</title>
  <g >

    <path class="cls-1" d="M25.62,35H1.14A1.14,1.14,0,0,1,0,33.82V1.14A1.14,1.14,0,0,1,1.14,0H17a1.14,1.14,0,0,1,.81.33l8.6,8.6a1.14,1.14,0,0,1,.33.81V33.82A1.14,1.14,0,0,1,25.62,35ZM2.28,32.67H24.48V10.22L16.54,2.28H2.28V32.67Z" />
    <path class="cls-1" d="M25,10.5H16.9a0.64,0.64,0,0,1-.64-0.64V1.78a0.64,0.64,0,0,1,1.09-.45l8.08,8.08A0.64,0.64,0,0,1,25,10.5Z" />
    <path class="cls-1" d="M19.86,19.17H6.23a1.14,1.14,0,0,1,0-2.28H19.86A1.14,1.14,0,0,1,19.86,19.17Z" />
    <path class="cls-1" d="M13.59,25.39H6.23a1.14,1.14,0,1,1,0-2.28h7.36A1.14,1.14,0,1,1,13.59,25.39Z" />
</g>
</svg>