<svg id="Capa_1" data-name="Capa 1" xmlns="http://www.w3.org/2000/svg" viewBox="0 0 139.24154 211.94462"><defs><style>.cls-1{fill:#f2ab27;}.cls-2{fill:#154659;}</style></defs><title>Isotipo Azul</title><path class="cls-1" d="M64.73389,0L14.64323,50.09067A26.34243,26.34243,0,0,0,51.89705,87.34449L139.24154,0H64.73389Z"/><path class="cls-1" d="M126.40515,124.59868a26.37253,26.37253,0,0,0-37.25382,0L1.80538,211.94462H76.313l50.09213-50.09213A26.37253,26.37253,0,0,0,126.40515,124.59868Z"/><path class="cls-2" d="M14.64323,50.09064a26.37251,26.37251,0,0,1,37.25384,0l74.50807,74.50807a26.34244,26.34244,0,1,1-37.25384,37.25384L14.64323,87.34449A26.37251,26.37251,0,0,1,14.64323,50.09064ZM120.98539,156.43281a19.9643,19.9643,0,0,0,0-28.20229L48.26528,55.5104A19.942,19.942,0,0,0,20.063,83.71269L92.7831,156.43281A19.9643,19.9643,0,0,0,120.98539,156.43281Z"/></svg>